<?xml version="1.0" encoding="utf-8"?>
<!-- Generator: Adobe Illustrator 23.0.2, SVG Export Plug-In . SVG Version: 6.00 Build 0)  -->
<svg version="1.1" id="레이어_1" xmlns="http://www.w3.org/2000/svg" xmlns:xlink="http://www.w3.org/1999/xlink" x="0px"
	 y="0px" viewBox="0 0 22 20" style="enable-background:new 0 0 22 20;" xml:space="preserve">
<style type="text/css">
	.st0{opacity:0.6;}
	.st1{fill-rule:evenodd;clip-rule:evenodd;fill:#FFFFFF;fill-opacity:0;}
	.st2{fill-rule:evenodd;clip-rule:evenodd;fill:#FFFFFF;}
</style>
<title>behance</title>
<desc>Created with Sketch.</desc>
<g id="Page-1" class="st0">
	<g id="RIDI-Design-System" transform="translate(-1177.000000, -59.000000)">
		<g id="behance" transform="translate(1177.000000, 56.000000)">
			<rect id="Rectangle" y="3" class="st1" width="22" height="20"/>
			<path id="Behance" class="st2" d="M14.1,8.3h5.8V6.6h-5.8V8.3L14.1,8.3z M15.4,12c-0.4,0.4-0.6,0.9-0.7,1.6h4.5
				c0-0.7-0.3-1.2-0.7-1.6c-0.4-0.4-0.9-0.5-1.6-0.5C16.3,11.5,15.8,11.7,15.4,12L15.4,12L15.4,12z M19.4,9.8
				c0.7,0.3,1.3,0.8,1.7,1.5c0.4,0.6,0.7,1.3,0.8,2.1c0.1,0.5,0.1,1.1,0.1,2h-7.3c0,1,0.4,1.7,1.1,2.1c0.4,0.3,0.9,0.4,1.5,0.4
				c0.6,0,1.1-0.2,1.5-0.5c0.2-0.2,0.4-0.4,0.5-0.7h2.7c-0.1,0.6-0.4,1.2-1,1.8c-0.9,1-2.2,1.5-3.8,1.5c-1.3,0-2.5-0.4-3.5-1.2
				c-1-0.8-1.5-2.2-1.5-4c0-1.8,0.5-3.1,1.4-4c0.9-0.9,2.1-1.4,3.6-1.4C17.9,9.3,18.7,9.4,19.4,9.8L19.4,9.8L19.4,9.8z M2.7,13.6
				v3.6H6c0.6,0,1.1-0.1,1.4-0.2c0.6-0.3,0.9-0.9,0.9-1.7c0-0.7-0.3-1.2-0.9-1.5c-0.3-0.1-0.8-0.2-1.4-0.2H2.7L2.7,13.6z M2.7,8.4v3
				H6c0.6,0,1.1-0.1,1.4-0.3C7.8,10.8,8,10.4,8,9.8c0-0.6-0.2-1.1-0.7-1.3c-0.4-0.1-1-0.2-1.6-0.2H2.7L2.7,8.4z M10.1,7.5
				c0.4,0.6,0.6,1.3,0.6,2.1c0,0.8-0.2,1.5-0.6,2c-0.2,0.3-0.6,0.5-1,0.8c0.7,0.3,1.2,0.7,1.6,1.2c0.4,0.5,0.5,1.2,0.5,2
				c0,0.8-0.2,1.5-0.6,2.2c-0.3,0.4-0.6,0.8-1,1.1c-0.4,0.3-0.9,0.6-1.5,0.7c-0.6,0.1-1.2,0.2-1.9,0.2H0V6h6.6
				C8.2,6,9.4,6.5,10.1,7.5L10.1,7.5L10.1,7.5z"/>
		</g>
	</g>
</g>
</svg>
