<?xml version="1.0" encoding="UTF-8"?>
<svg width="20px" height="20px" viewBox="0 0 20 20" version="1.1" xmlns="http://www.w3.org/2000/svg" xmlns:xlink="http://www.w3.org/1999/xlink">
    <!-- Generator: Sketch 53 (72520) - https://sketchapp.com -->
    <title>dribbble</title>
    <desc>Created with Sketch.</desc>
    <g id="Page-1" stroke="none" stroke-width="1" fill="none" fill-rule="evenodd" opacity="0.6">
        <g id="RIDI-Design-System" transform="translate(-1229.000000, -56.000000)" fill="#FFFFFF">
            <path d="M1249,66.0000196 C1249,66.6772394 1248.93115,67.3535199 1248.79592,68.0127358 C1248.66405,68.6562962 1248.46874,69.2881149 1248.21287,69.8921059 C1247.96288,70.485412 1247.65281,71.0571525 1247.29048,71.5903413 C1246.93355,72.1201641 1246.52237,72.6172278 1246.07069,73.0703384 C1245.61802,73.5214921 1245.11995,73.932098 1244.59112,74.2910405 C1244.05692,74.6513529 1243.48515,74.961411 1242.89232,75.2129174 C1242.2883,75.4677897 1241.65589,75.6630926 1241.01379,75.7949123 C1240.35461,75.9306851 1239.67681,76 1238.99955,76 C1238.32178,76 1237.64402,75.9306851 1236.98578,75.7949123 C1236.3427,75.6630926 1235.71033,75.4677897 1235.10678,75.2129174 C1234.51399,74.961411 1233.94167,74.6513529 1233.40747,74.2910405 C1232.87864,73.9321371 1232.38057,73.5214921 1231.92888,73.0703384 C1231.47673,72.6172278 1231.06555,72.1201641 1230.70811,71.5903413 C1230.34774,71.0571525 1230.03716,70.4853728 1229.78619,69.8921059 C1229.53028,69.2881149 1229.3345,68.656257 1229.20216,68.0127358 C1229.06838,67.3535199 1229,66.6772394 1229,66.0000196 C1229,65.322291 1229.06834,64.6445623 1229.2022,63.9867945 C1229.33454,63.3432342 1229.53032,62.710437 1229.78623,62.1074244 C1230.0372,61.5136878 1230.34778,60.9414385 1230.70815,60.4082106 C1231.06559,59.8779572 1231.47676,59.3818329 1231.92892,58.9282134 C1232.38061,58.4770206 1232.87868,58.0673932 1233.40751,57.7089986 C1233.94171,57.3471598 1234.51403,57.0371408 1235.10682,56.7851648 C1235.71037,56.5297446 1236.3427,56.3339719 1236.98582,56.2031307 C1237.64406,56.0683756 1238.32182,56 1238.99959,56 C1239.67685,56 1240.35461,56.0683756 1241.01382,56.2031307 C1241.65593,56.3340111 1242.2883,56.5297837 1242.89236,56.7851648 C1243.48515,57.0371017 1244.05696,57.3471598 1244.59116,57.7089986 C1245.11999,58.0673932 1245.6181,58.4770206 1246.07073,58.9282134 C1246.52241,59.3818329 1246.93359,59.8779572 1247.29052,60.4082106 C1247.65281,60.9414385 1247.96288,61.513727 1248.21287,62.1074244 C1248.46874,62.710437 1248.66405,63.3432342 1248.79592,63.9867945 C1248.93115,64.6445623 1249,65.322291 1249,66.0000196 Z M1235.3558,58.275886 C1232.9743,59.4004239 1231.19687,61.5947444 1230.64263,64.2392794 C1230.86777,64.2412363 1234.42655,64.2861677 1238.52684,63.1967765 C1237.04876,60.5707934 1235.46958,58.4277839 1235.3558,58.275886 Z M1239.2344,64.5117642 C1234.83722,65.8281217 1230.61774,65.7334056 1230.46638,65.7275739 C1230.46391,65.8193546 1230.45953,65.9081998 1230.45953,66.0000196 C1230.45953,68.1938313 1231.2872,70.1938274 1232.64763,71.7060749 C1232.64469,71.7016522 1234.98176,67.5556721 1239.59038,66.0654598 C1239.7017,66.0283561 1239.81501,65.9951272 1239.92731,65.9629159 C1239.71297,65.477594 1239.47903,64.9912544 1239.2344,64.5117642 Z M1244.6395,59.5908345 C1243.13597,58.2651228 1241.16178,57.4609756 1238.99955,57.4609756 C1238.30566,57.4609756 1237.63228,57.5449676 1236.98723,57.7002315 C1237.11515,57.8721294 1238.71926,60.0000313 1240.17977,62.6816308 C1243.40213,61.4736488 1244.61848,59.6220673 1244.6395,59.5908345 Z M1240.50938,67.3779425 C1240.49035,67.3842439 1240.47133,67.3896842 1240.45274,67.3964943 C1235.41399,69.152982 1233.76851,72.6928085 1233.75071,72.7314501 C1235.20052,73.8588692 1237.01898,74.5390635 1238.99955,74.5390635 C1240.1822,74.5390635 1241.30871,74.2982812 1242.33366,73.8623134 C1242.20719,73.1162092 1241.71108,70.5009892 1240.50938,67.3779425 Z M1243.77178,73.0820409 C1245.68934,71.78811 1247.05121,69.7334369 1247.43111,67.3534807 C1247.25533,67.2968468 1244.86604,66.5404882 1242.10954,66.9824051 C1243.22971,70.0605596 1243.68485,72.567404 1243.77178,73.0820409 Z M1240.83706,63.9541136 C1241.03527,64.3613535 1241.22722,64.7758341 1241.40445,65.1923891 C1241.46747,65.3418212 1241.529,65.488318 1241.58904,65.6347757 C1244.52278,65.2656179 1247.41307,65.8867126 1247.53664,65.9120745 C1247.5171,63.8876949 1246.79292,62.0297729 1245.59465,60.5752161 C1245.57853,60.5981123 1244.20883,62.57713 1240.83706,63.9541136 Z" id="dribbble"></path>
        </g>
    </g>
</svg>