<?xml version="1.0" encoding="UTF-8"?>
<svg width="60px" height="47px" viewBox="0 0 60 47" version="1.1" xmlns="http://www.w3.org/2000/svg" xmlns:xlink="http://www.w3.org/1999/xlink">
    <!-- Generator: Sketch 53 (72520) - https://sketchapp.com -->
    <title>logo</title>
    <desc>Created with Sketch.</desc>
    <g id="Page-1" stroke="none" stroke-width="1" fill="none" fill-rule="evenodd">
        <g id="RIDI-Design-System" transform="translate(-140.000000, -41.000000)" fill="#FFFFFF">
            <g id="logo" transform="translate(140.000000, 41.000000)">
                <path d="M23.2252722,10.8415357 C22.2184528,10.8415357 21.2179407,10.70375 20.2843019,10.4299643 C18.6220916,9.94253571 17.2219569,9.05546429 16.2001779,7.84853571 C15.8756765,8.20003571 15.5020108,8.52496429 15.081283,8.81982143 C13.8791806,9.66232143 12.2849757,10.26225 10.4709057,10.5546786 C8.38869542,10.8903214 6.34909973,10.5891786 4.57254987,9.68367857 C2.80918059,8.78489286 1.47834501,7.37867857 0.723735849,5.61703571 C0.147024259,4.27032143 -0.0921671159,2.80867857 0.0319568733,1.39003571 C0.100690027,0.603464286 0.879396226,0.0146071429 1.76896496,0.0758214286 C2.65950404,0.136607143 3.3256496,0.823607143 3.25683558,1.61025 C3.17031267,2.59896429 3.3450566,3.66289286 3.74904582,4.60603571 C4.60853369,6.61296429 6.5850566,7.82817857 8.84928841,7.82825 C9.19069003,7.82825 9.53847978,7.80067857 9.89023181,7.74396429 C11.1835472,7.53546429 12.2834394,7.13353571 13.0708787,6.58160714 C13.9314178,5.97846429 14.3960539,5.21725 14.4913908,4.25453571 C14.5626307,3.53410714 15.2320916,2.97439286 16.0504205,2.95103571 C16.8664852,2.92853571 17.5774286,3.44817857 17.7012291,4.16296429 C17.8113639,4.79960714 18.2062156,5.34925 18.5544906,5.83417857 L18.5621725,5.84482143 C19.9992615,7.84546429 22.7296658,8.27503571 24.7987763,7.81317857 C26.5053801,7.43217857 28.387779,6.28939286 28.5525768,4.22439286 C28.6090997,3.51560714 29.2468625,2.95125 30.0491806,2.90003571 C30.8505283,2.84846429 31.5744906,3.32610714 31.7458383,4.02039286 C31.8793423,4.56110714 32.3478598,5.39875 32.6618491,5.75860714 C34.1787493,7.49725 36.4793693,8.19482143 38.6658922,7.57953571 C40.2813639,7.12496429 42.247779,6.17053571 42.4415256,4.20575 C42.5101779,3.50967857 43.1388032,2.95953571 43.9273747,2.90546429 C44.7157035,2.85103571 45.4332776,3.30896429 45.6227385,3.98739286 C45.7956226,4.60589286 46.3608518,5.51482143 46.7600701,5.94375 C48.277779,7.57446429 51.1033585,8.01560714 53.4782911,6.99296429 C55.7234394,6.02617857 56.8918221,4.06296429 56.6838437,1.60667857 C56.6172938,0.819892857 57.2853801,0.134392857 58.1760809,0.0755357143 C59.0652453,0.0161071429 59.8428194,0.606821429 59.9093693,1.39360714 C60.2166469,5.02367857 58.3423342,8.07696429 54.8956496,9.56117857 C53.1596927,10.30875 51.166593,10.5661071 49.2832237,10.2854643 C47.2847062,9.98782143 45.501283,9.09025 44.2614987,7.75817857 C44.2445175,7.73996429 44.2274555,7.72125 44.2103127,7.70225 C44.0255418,7.90696429 43.8238706,8.10432143 43.6051375,8.29417857 C42.5942749,9.17189286 41.2627116,9.84739286 39.6477251,10.3018929 C37.8938976,10.7953929 36.0594501,10.7778214 34.3423342,10.2513214 C32.8323881,9.78825 31.4738976,8.95103571 30.3892075,7.81903571 C30.1929542,8.05675 29.9770512,8.28446429 29.7421456,8.50103571 C28.6600431,9.49860714 27.2246523,10.2186071 25.5912291,10.58325 C24.8185067,10.7556786 24.0199084,10.8415357 23.2252722,10.8415357" id="Fill-1"></path>
                <path d="M23.2252722,28.8266501 C22.2184528,28.8266501 21.2179407,28.6888644 20.2843019,28.4150787 C18.6220916,27.9276501 17.2219569,27.0405072 16.2001779,25.8336501 C15.8756765,26.1851501 15.5020108,26.5100787 15.081283,26.8049358 C13.8791806,27.6474358 12.2849757,28.2473644 10.4709057,28.539793 C8.38861456,28.8754358 6.34901887,28.574293 4.57254987,27.668793 C2.80918059,26.7700072 1.47834501,25.363793 0.723735849,23.6021501 C0.147024259,22.2554358 -0.0921671159,20.793793 0.0319568733,19.3751501 C0.100690027,18.5885787 0.879396226,17.9997215 1.76896496,18.0609358 C2.65950404,18.1217215 3.3256496,18.8087215 3.25683558,19.5953644 C3.17031267,20.5840787 3.3450566,21.6480072 3.74904582,22.5911501 C4.60861456,24.5980787 6.5850566,25.813293 8.84928841,25.8133644 C9.19069003,25.8133644 9.53847978,25.785793 9.89023181,25.7290787 C11.1835472,25.5205787 12.2834394,25.1186501 13.0708787,24.5667215 C13.9314178,23.9635787 14.3960539,23.2023644 14.4913908,22.2395787 C14.5626307,21.5191501 15.2320916,20.9594358 16.0503396,20.9361501 C16.8702049,20.9130072 17.5774286,21.4332215 17.7012291,22.1480787 C17.8113639,22.7847215 18.2062156,23.3343644 18.5544906,23.819293 L18.5621725,23.8299358 C19.9992615,25.8305072 22.7300701,26.2600787 24.7986954,25.798293 C26.5053801,25.417293 28.387779,24.2744358 28.5525768,22.2095072 C28.6090997,21.5007215 29.2468625,20.9363644 30.0491806,20.8851501 C30.8505283,20.8340787 31.5744906,21.3112215 31.7458383,22.0055072 C31.8793423,22.5462215 32.3478598,23.3838644 32.6618491,23.7437215 C34.1787493,25.4823644 36.4793693,26.1800072 38.6658922,25.5646501 C40.2813639,25.1100787 42.247779,24.1556501 42.4415256,22.1908644 C42.5190728,21.4048644 43.3032776,20.8230787 44.1930081,20.8916501 C45.0828194,20.9601501 45.741283,21.652793 45.6638167,22.438793 C45.5168895,23.9287215 44.824221,25.2208644 43.6051375,26.279293 C42.5942749,27.1570072 41.2627116,27.8325072 39.6477251,28.2870072 C37.8938976,28.7805072 36.0594501,28.7630072 34.3423342,28.2364358 C32.832469,27.7733644 31.4738976,26.9361501 30.3892075,25.8041501 C30.1929542,26.041793 29.9769704,26.2695787 29.7421456,26.4861501 C28.6600431,27.4836501 27.2246523,28.2036501 25.5912291,28.568293 C24.8185067,28.740793 24.0199084,28.8266501 23.2252722,28.8266501" id="Fill-4"></path>
                <path d="M23.2253531,46.7857143 C22.2184528,46.7857143 21.2179407,46.6479286 20.2843827,46.3741429 C18.6221725,45.8867143 17.2219569,44.9996429 16.2001779,43.7927143 C15.8756765,44.1442857 15.5020108,44.4691429 15.081283,44.7640714 C13.8791806,45.6065714 12.2849757,46.2064286 10.4709865,46.4988571 C8.38853369,46.8347143 6.34901887,46.5333571 4.57254987,45.6279286 C2.80926146,44.7290714 1.47834501,43.3228571 0.723735849,41.5612143 C0.147024259,40.2145714 -0.0921671159,38.7529286 0.0319568733,37.3342857 C0.100690027,36.5476429 0.879396226,35.9587857 1.76896496,36.0200714 C2.65950404,36.0808571 3.3256496,36.7678571 3.25683558,37.5545 C3.17031267,38.5431429 3.3450566,39.6071429 3.74904582,40.5502857 C4.60861456,42.5572143 6.5850566,43.7723571 8.84928841,43.7725 C9.19069003,43.7725 9.53847978,43.7448571 9.89023181,43.6882143 C11.1835472,43.4796429 12.2834394,43.0777143 13.0708787,42.5258571 C13.9314178,41.9226429 14.3961348,41.1614286 14.4913908,40.1987143 C14.5626307,39.4782857 15.2320916,38.9185714 16.0504205,38.8952143 C16.8664852,38.8731429 17.5774286,39.3923571 17.7012291,40.1071429 C17.8113639,40.7438571 18.2062156,41.2935 18.5544906,41.7784286 L18.5621725,41.789 C19.9993423,43.7897143 22.7303935,44.2192143 24.7987763,43.7573571 C26.5053801,43.3763571 28.387779,42.2335714 28.5525768,40.1686429 C28.6090997,39.4597857 29.2468625,38.8955 30.0491806,38.8442143 C30.8505283,38.7929286 31.5744906,39.2703571 31.7458383,39.9645714 C31.8793423,40.5052857 32.3478598,41.3429286 32.6618491,41.7027143 C34.1785876,43.4412857 36.4792075,44.1390714 38.6658113,43.5237857 C40.2813639,43.0691429 42.247779,42.1147857 42.4415256,40.15 C42.5101779,39.4538571 43.1388032,38.9037857 43.9273747,38.8496429 C44.7157035,38.7955714 45.4332776,39.2532143 45.6227385,39.9315714 C45.7956226,40.5500714 46.3608518,41.459 46.7600701,41.8879286 C48.277779,43.5186429 51.1032776,43.9598571 53.478372,42.9371429 C55.7234394,41.9703571 56.8918221,40.0071429 56.6838437,37.5508571 C56.6172938,36.7640714 57.2853801,36.0785714 58.1760809,36.0197857 C59.0652453,35.9604286 59.8428194,36.551 59.9093693,37.3378571 C60.2166469,40.9679286 58.3423342,44.0211429 54.8956496,45.5053571 C53.159531,46.253 51.1662695,46.5102143 49.2832237,46.2297143 C47.2847062,45.932 45.501283,45.0345 44.2614987,43.7023571 C44.2445175,43.6842143 44.2274555,43.6655 44.2103127,43.6465 C44.0255418,43.8512143 43.8238706,44.0485 43.6051375,44.2383571 C42.5941941,45.1160714 41.2627116,45.7915714 39.6476442,46.2460714 C37.8939784,46.7395714 36.059531,46.7220714 34.3423342,46.1955 C32.8323881,45.7324286 31.4738976,44.8952143 30.3892075,43.7632143 C30.1929542,44.0009286 29.9770512,44.2287143 29.7421456,44.4452143 C28.6600431,45.4427857 27.2247332,46.1627857 25.5912291,46.5273571 C24.8185067,46.6998571 24.0199084,46.7857143 23.2253531,46.7857143" id="Fill-6"></path>
            </g>
        </g>
    </g>
</svg>