<?xml version="1.0" encoding="utf-8"?>
<!-- Generator: Adobe Illustrator 23.0.2, SVG Export Plug-In . SVG Version: 6.00 Build 0)  -->
<svg version="1.1" id="레이어_1" xmlns="http://www.w3.org/2000/svg" xmlns:xlink="http://www.w3.org/1999/xlink" x="0px"
	 y="0px" viewBox="0 0 22 20" style="enable-background:new 0 0 22 20;" xml:space="preserve">
<style type="text/css">
	.st0{fill-rule:evenodd;clip-rule:evenodd;fill:#636C73;}
</style>
<title>Fill 1</title>
<desc>Created with Sketch.</desc>
<g id="Page-1">
	<g id="Home" transform="translate(-1279.000000, -57.000000)">
		<path id="Fill-1" class="st0" d="M1298.9,61.1l-9.4,5.3l-8.9-5v-0.5c0-0.8,0.6-1.3,1.4-1.3h15.5c0.8,0,1.4,0.6,1.4,1.3V61.1z
			 M1297.5,73.9H1282c-0.8,0-1.4-0.6-1.4-1.3v-9.3l8.2,4.6c0.4,0.2,1,0.2,1.4,0l8.7-4.9v9.6C1298.9,73.3,1298.3,73.9,1297.5,73.9
			L1297.5,73.9z M1297.5,58H1282c-1.7,0-3,1.3-3,2.9v11.7c0,1.6,1.3,2.9,3,2.9h15.5c1.7,0,3-1.3,3-2.9V60.9
			C1300.5,59.3,1299.2,58,1297.5,58L1297.5,58z"/>
	</g>
</g>
</svg>
