<?xml version="1.0" encoding="UTF-8"?>
<svg width="764px" height="87px" viewBox="0 0 764 87" version="1.1" xmlns="http://www.w3.org/2000/svg" xmlns:xlink="http://www.w3.org/1999/xlink">
    <!-- Generator: Sketch 53 (72520) - https://sketchapp.com -->
    <title>Group 17</title>
    <desc>Created with Sketch.</desc>
    <defs>
        <polygon id="path-1" points="0.000141706479 0.000321428571 28.9896429 0.000321428571 28.9896429 24.2944286 0.000141706479 24.2944286"></polygon>
        <polygon id="path-3" points="0 0.000211764706 25.7749243 0.000211764706 25.7749243 23.3158588 0 23.3158588"></polygon>
        <polygon id="path-5" points="0.430135484 0.05506875 20.5231613 0.05506875 20.5231613 19.5181938 0.430135484 19.5181938"></polygon>
        <polygon id="path-7" points="0 6.94444444e-05 24.9930556 6.94444444e-05 24.9930556 24.3090972 0 24.3090972"></polygon>
        <polygon id="path-9" points="0.000138888889 0.000208333333 24.9944444 0.000208333333 24.9944444 24.9938194 0.000138888889 24.9938194"></polygon>
        <polygon id="path-11" points="0 0.000283870968 23.9942118 0.000283870968 23.9942118 21.3083484 0 21.3083484"></polygon>
        <polygon id="path-13" points="0.00020625 -7.02702703e-05 22 -7.02702703e-05 22 25.299827 0.00020625 25.299827"></polygon>
        <polygon id="path-15" points="0 0.00028 24.99375 0.00028 24.99375 27.99748 0 27.99748"></polygon>
        <polygon id="path-17" points="0 0.000351351351 24.2977857 0.000351351351 24.2977857 25.3173243 0 25.3173243"></polygon>
        <polygon id="path-19" points="6.13266052e-16 0.000128332158 28.3260952 0.000128332158 28.3260952 27.9871966 6.13266052e-16 27.9871966"></polygon>
        <polygon id="path-21" points="0 7.07317073e-05 24.9521429 7.07317073e-05 24.9521429 28.9307537 0 28.9307537"></polygon>
        <polygon id="path-23" points="0 -0.000137233201 18.9836741 -0.000137233201 18.9836741 24.3046429 0 24.3046429"></polygon>
        <polygon id="path-25" points="0 0.000276923077 28.3117805 0.000276923077 28.3117805 26.3155846 0 26.3155846"></polygon>
        <polygon id="path-27" points="0.000212195122 0 28.3110732 0 28.3110732 26.3165538 0.000212195122 26.3165538"></polygon>
        <polygon id="path-29" points="0 0.000210810811 28.3117805 0.000210810811 28.3117805 25.3164811 0 25.3164811"></polygon>
        <polygon id="path-31" points="5.15378855e-05 0.000281081081 28.406561 0.000281081081 28.406561 25.9411135 5.15378855e-05 25.9411135"></polygon>
        <polygon id="path-33" points="0 -0.000210810811 27.5611 -0.000210810811 27.5611 25.4811946 0 25.4811946"></polygon>
        <polygon id="path-35" points="0 0.000346153846 26.568 0.000346153846 26.568 26.5683462 0 26.5683462"></polygon>
    </defs>
    <g id="Page-1" stroke="none" stroke-width="1" fill="none" fill-rule="evenodd">
        <g id="olleh-TV-Mobile-5.0" transform="translate(-338.000000, -2069.000000)">
            <g id="Group-17" transform="translate(338.000000, 2069.000000)">
                <g id="Group-2">
                    <g id="Group-3" transform="translate(0.000000, 2.000000)">
                        <mask id="mask-2" fill="white">
                            <use xlink:href="#path-1"></use>
                        </mask>
                        <g id="Clip-2"></g>
                        <path d="M23.6098667,22.6872857 L5.38060476,22.6872857 L5.38060476,6.97871429 L14.4948905,1.73157143 L23.6098667,6.97871429 L23.6098667,22.6872857 Z M28.586819,7.98585714 L14.8981286,0.108 C14.6481762,-0.0355714286 14.3409143,-0.0355714286 14.0923429,0.108 L0.403652381,7.98585714 C0.0176761905,8.208 -0.114204762,8.69942857 0.108128571,9.08371429 C0.330461905,9.468 0.824152381,9.60014286 1.2094381,9.37728571 L3.76903333,7.90442857 L3.76903333,23.4908571 C3.76903333,23.9344286 4.1294619,24.2944286 4.57481905,24.2944286 L24.4163429,24.2944286 C24.8610095,24.2944286 25.2221286,23.9344286 25.2221286,23.4908571 L25.2221286,7.90442857 L27.7817238,9.37728571 C27.908081,9.45085714 28.0468667,9.48585714 28.183581,9.48585714 C28.4618429,9.48585714 28.7325095,9.34014286 28.8816524,9.08371429 C29.1046762,8.69942857 28.9721048,8.208 28.586819,7.98585714 L28.586819,7.98585714 Z M15.7267,9.45085714 L15.7267,11.7965714 C15.7267,11.8251429 15.7018429,11.8494286 15.6721524,11.8494286 L13.3190095,11.8494286 C13.289319,11.8494286 13.2644619,11.8251429 13.2644619,11.7965714 L13.2644619,9.45085714 C13.2644619,9.42157143 13.289319,9.39585714 13.3190095,9.39585714 L15.6721524,9.39585714 C15.7018429,9.39585714 15.7267,9.42157143 15.7267,9.45085714 L15.7267,9.45085714 Z M11.6522,9.45085714 L11.6522,11.7965714 C11.6522,12.7115714 12.3999857,13.4558571 13.3190095,13.4558571 L15.6721524,13.4558571 C16.5911762,13.4558571 17.3389619,12.7115714 17.3389619,11.7965714 L17.3389619,9.45085714 C17.3389619,8.53442857 16.5911762,7.78942857 15.6721524,7.78942857 L13.3190095,7.78942857 C12.3999857,7.78942857 11.6522,8.53442857 11.6522,9.45085714 L11.6522,9.45085714 Z" id="Fill-1" fill="#231F20" mask="url(#mask-2)"></path>
                    </g>
                    <g id="Group-3" transform="translate(86.000000, 2.000000)">
                        <mask id="mask-4" fill="white">
                            <use xlink:href="#path-3"></use>
                        </mask>
                        <g id="Clip-2"></g>
                        <path d="M24.3695189,18.5659765 L20.4182216,18.5659765 C19.9094649,17.1492706 18.6832486,16.1476235 17.2518432,16.1476235 L8.52216757,16.1476235 C7.09216757,16.1476235 5.86524865,17.1492706 5.35649189,18.5659765 L1.40519459,18.5659765 L1.40519459,1.41162353 L24.3695189,1.41162353 L24.3695189,18.5659765 Z M19.2657892,21.9040941 L6.50892432,21.9040941 L6.50892432,20.0222118 C6.50892432,18.6648 7.4118973,17.5593882 8.52216757,17.5593882 L17.2518432,17.5593882 C18.3621135,17.5593882 19.2657892,18.6648 19.2657892,20.0222118 L19.2657892,21.9040941 Z M25.0722216,-0.000141176471 L0.702491892,-0.000141176471 C0.315302703,-0.000141176471 -0.000210810811,0.316094118 -0.000210810811,0.705741176 L-0.000210810811,19.2718588 C-0.000210810811,19.6615059 0.315302703,19.9777412 0.702491892,19.9777412 L5.10562703,19.9777412 C5.10492432,19.9925647 5.10351892,20.0073882 5.10351892,20.0222118 L5.10351892,22.6099765 C5.10351892,22.9989176 5.41832973,23.3158588 5.80622162,23.3158588 L19.9684919,23.3158588 C20.3563838,23.3158588 20.6711946,22.9989176 20.6711946,22.6099765 L20.6711946,20.0222118 C20.6711946,20.0073882 20.6697892,19.9925647 20.6690865,19.9777412 L25.0722216,19.9777412 C25.4601135,19.9777412 25.7749243,19.6615059 25.7749243,19.2718588 L25.7749243,0.705741176 C25.7749243,0.316094118 25.4601135,-0.000141176471 25.0722216,-0.000141176471 L25.0722216,-0.000141176471 Z M12.8873568,6.89350588 C14.8928703,6.89350588 16.5231405,8.53185882 16.5231405,10.5457412 C16.5231405,12.5589176 14.8928703,14.1979765 12.8873568,14.1979765 C10.8832486,14.1979765 9.25157297,12.5589176 9.25157297,10.5457412 C9.25157297,8.53185882 10.8832486,6.89350588 12.8873568,6.89350588 L12.8873568,6.89350588 Z M12.8873568,15.6097412 C15.6665459,15.6097412 17.9278432,13.3382118 17.9278432,10.5457412 C17.9278432,7.75397647 15.6665459,5.48174118 12.8873568,5.48174118 C10.1081676,5.48174118 7.84616757,7.75397647 7.84616757,10.5457412 C7.84616757,13.3382118 10.1081676,15.6097412 12.8873568,15.6097412 L12.8873568,15.6097412 Z" id="Fill-1" fill="#231F20" mask="url(#mask-4)"></path>
                    </g>
                    <g id="Group-8" transform="translate(169.000000, 3.000000)">
                        <path d="M2.7742,16.5697812 C1.24271613,16.5697812 7.09677419e-05,17.7729062 7.09677419e-05,19.2565312 C7.09677419e-05,20.7415312 1.24271613,21.9446562 2.7742,21.9446562 C4.30568387,21.9446562 5.54903871,20.7415312 5.54903871,19.2565312 C5.54903871,17.7729062 4.30568387,16.5697812 2.7742,16.5697812" id="Fill-1" fill="#231F20"></path>
                        <path d="M2.7742,7.93038125 C2.26536129,7.93038125 1.85232903,8.33050625 1.85232903,8.82344375 C1.85232903,9.31775625 2.26536129,9.71719375 2.77561935,9.71719375 C8.20465161,9.71719375 12.6223935,13.9968812 12.6223935,19.2569437 C12.6223935,19.7505687 13.0354258,20.1500062 13.5449742,20.1500062 C14.0545226,20.1500062 14.4675548,19.7498813 14.4675548,19.2569437 C14.4675548,13.0110062 9.22161935,7.93038125 2.7742,7.93038125" id="Fill-3" fill="#231F20"></path>
                        <g id="Group-7" transform="translate(1.419355, 0.632431)">
                            <mask id="mask-6" fill="white">
                                <use xlink:href="#path-5"></use>
                            </mask>
                            <g id="Clip-6"></g>
                            <path d="M1.35626452,0.05506875 L1.35626452,0.05506875 C1.35626452,0.05506875 1.35555484,0.05506875 1.35555484,0.05506875 C0.844587097,0.05506875 0.430135484,0.45588125 0.430135484,0.95088125 C0.430135484,1.44519375 0.844587097,1.84669375 1.35555484,1.84669375 C1.36194194,1.84669375 1.36832903,1.84325625 1.37471613,1.84256875 C10.9184581,1.85288125 18.678071,9.37756875 18.678071,18.6244438 C18.678071,19.1187563 19.0918129,19.5181938 19.6013613,19.5181938 C20.1109097,19.5181938 20.5232323,19.1180687 20.5232323,18.6244438 C20.5232323,8.38550625 11.9254903,0.05506875 1.35626452,0.05506875" id="Fill-5" fill="#231F20" mask="url(#mask-6)"></path>
                        </g>
                    </g>
                    <g id="Group-3" transform="translate(248.000000, 2.000000)">
                        <mask id="mask-8" fill="white">
                            <use xlink:href="#path-7"></use>
                        </mask>
                        <g id="Clip-2"></g>
                        <path d="M1.36319444,21.1917361 L23.63125,21.1917361 L23.63125,4.86951389 L1.36319444,4.86951389 L1.36319444,21.1917361 Z M24.3125,3.52576389 L13.4833333,3.52576389 L15.8965278,1.14659722 C16.1618056,0.884097222 16.1618056,0.459097222 15.8965278,0.196597222 C15.6305556,-0.0659027778 15.1993056,-0.0659027778 14.9333333,0.196597222 L12.4965278,2.59798611 L10.0611111,0.196597222 C9.79513889,-0.0659027778 9.36388889,-0.0659027778 9.09791667,0.196597222 C8.83125,0.459097222 8.83125,0.884097222 9.09791667,1.14659722 L11.5111111,3.52576389 L0.68125,3.52576389 C0.304861111,3.52576389 0,3.82645833 0,4.19729167 L0,21.8632639 C0,22.2340972 0.304861111,22.5347917 0.68125,22.5347917 L5.44027778,22.5347917 L4.82291667,23.1750694 C4.56388889,23.4452083 4.57569444,23.8695139 4.84861111,24.124375 C4.98055556,24.2479861 5.14930556,24.3090972 5.31736111,24.3090972 C5.49861111,24.3090972 5.67777778,24.2396528 5.81180556,24.1000694 L7.31944444,22.5347917 L17.6743056,22.5347917 L19.18125,24.1000694 C19.3152778,24.2396528 19.4958333,24.3090972 19.6763889,24.3090972 C19.8444444,24.3090972 20.0138889,24.2479861 20.1458333,24.124375 C20.4180556,23.8695139 20.4291667,23.4452083 20.1701389,23.1750694 L19.5541667,22.5347917 L24.3125,22.5347917 C24.6895833,22.5347917 24.9930556,22.2340972 24.9930556,21.8632639 L24.9930556,4.19729167 C24.9930556,3.82645833 24.6895833,3.52576389 24.3125,3.52576389 L24.3125,3.52576389 Z M12.4569444,18.749375 C13.1972222,18.749375 13.7972222,18.1584028 13.7972222,17.4285417 C13.7972222,16.699375 13.1972222,16.1070139 12.4569444,16.1070139 C11.7166667,16.1070139 11.1159722,16.699375 11.1159722,17.4285417 C11.1159722,18.1584028 11.7166667,18.749375 12.4569444,18.749375 L12.4569444,18.749375 Z" id="Fill-1" fill="#231F20" mask="url(#mask-8)"></path>
                    </g>
                    <g id="Group-3" transform="translate(330.000000, 2.000000)">
                        <mask id="mask-10" fill="white">
                            <use xlink:href="#path-9"></use>
                        </mask>
                        <g id="Clip-2"></g>
                        <path d="M13.2466667,12.4972917 C13.2466667,12.0827083 12.9119444,11.7465972 12.4973611,11.7465972 C12.0820833,11.7465972 11.7466667,12.0827083 11.7466667,12.4972917 C11.7466667,12.9125694 12.0820833,13.2479861 12.4973611,13.2479861 C12.9119444,13.2479861 13.2466667,12.9125694 13.2466667,12.4972917 M17.4265278,13.5111806 C16.8661111,13.5111806 16.4119444,13.0570139 16.4119444,12.4972917 C16.4119444,11.9375694 16.8661111,11.4827083 17.4265278,11.4827083 C17.9848611,11.4827083 18.4404167,11.9375694 18.4404167,12.4972917 C18.4404167,13.0570139 17.9848611,13.5111806 17.4265278,13.5111806 M17.4265278,10.1729861 C16.1445833,10.1729861 15.1022222,11.2153472 15.1022222,12.4972917 C15.1022222,13.7785417 16.1445833,14.8209028 17.4265278,14.8209028 C18.7070833,14.8209028 19.7494444,13.7785417 19.7494444,12.4972917 C19.7494444,11.2153472 18.7070833,10.1729861 17.4265278,10.1729861 M12.4973611,18.4403472 C11.9383333,18.4403472 11.4827778,17.9854861 11.4827778,17.4264583 C11.4827778,16.8667361 11.9383333,16.4125694 12.4973611,16.4125694 C13.0570833,16.4125694 13.5119444,16.8667361 13.5119444,17.4264583 C13.5119444,17.9854861 13.0570833,18.4403472 12.4973611,18.4403472 M12.4973611,15.1021528 C11.2161111,15.1021528 10.1730556,16.1452083 10.1730556,17.4264583 C10.1730556,18.7077083 11.2161111,19.7500694 12.4973611,19.7500694 C13.7786111,19.7500694 14.8209722,18.7077083 14.8209722,17.4264583 C14.8209722,16.1452083 13.7786111,15.1021528 12.4973611,15.1021528 M7.56819444,13.5111806 C7.00916667,13.5111806 6.55361111,13.0570139 6.55361111,12.4972917 C6.55361111,11.9375694 7.00916667,11.4827083 7.56819444,11.4827083 C8.12722222,11.4827083 8.58277778,11.9375694 8.58277778,12.4972917 C8.58277778,13.0570139 8.12722222,13.5111806 7.56819444,13.5111806 M7.56819444,10.1729861 C6.28694444,10.1729861 5.24458333,11.2153472 5.24458333,12.4972917 C5.24458333,13.7785417 6.28694444,14.8209028 7.56819444,14.8209028 C8.84944444,14.8209028 9.89180556,13.7785417 9.89180556,12.4972917 C9.89180556,11.2153472 8.84944444,10.1729861 7.56819444,10.1729861 M12.4973611,8.58201389 C11.9383333,8.58201389 11.4827778,8.12784722 11.4827778,7.568125 C11.4827778,7.00909722 11.9383333,6.55423611 12.4973611,6.55423611 C13.0570833,6.55423611 13.5119444,7.00909722 13.5119444,7.568125 C13.5119444,8.12784722 13.0570833,8.58201389 12.4973611,8.58201389 M12.4973611,5.24520833 C11.2161111,5.24520833 10.1730556,6.28756944 10.1730556,7.568125 C10.1730556,8.849375 11.2161111,9.89243056 12.4973611,9.89243056 C13.7786111,9.89243056 14.8209722,8.849375 14.8209722,7.568125 C14.8209722,6.28756944 13.7786111,5.24520833 12.4973611,5.24520833 M12.4973611,23.6847917 C9.50847222,23.6847917 6.69875,22.5202083 4.58555556,20.4070139 C2.47236111,18.2945139 1.30916667,15.4854861 1.30916667,12.4965972 C1.30916667,9.50840278 2.47236111,6.69868056 4.58555556,4.58618056 C6.69736111,2.47298611 9.50777778,1.30979167 12.4973611,1.30979167 C15.4855556,1.30979167 18.2959722,2.47298611 20.4084722,4.58618056 C22.5209722,6.69798611 23.6848611,9.50840278 23.6848611,12.4972917 C23.6848611,15.4861806 22.5209722,18.2952083 20.4084722,20.4070139 C18.2959722,22.5202083 15.4855556,23.6847917 12.4973611,23.6847917 M24.3390278,23.6847917 L18.0515278,23.6847917 C19.2494444,23.0882639 20.3598611,22.3070139 21.3341667,21.3334028 C23.6938889,18.9729861 24.9931944,15.8361806 24.9945833,12.4972917 C24.9945833,9.15840278 23.6945833,6.02020833 21.3341667,3.66048611 C18.97375,1.30006944 15.8355556,6.94444444e-05 12.4973611,6.94444444e-05 C9.15777778,6.94444444e-05 6.01958333,1.30006944 3.65986111,3.66048611 C1.29944444,6.02020833 0.000138888889,9.15840278 0.000138888889,12.4965972 C0.000138888889,15.8347917 1.29944444,18.9729861 3.65986111,21.3334028 C6.02097222,23.6938194 9.15847222,24.9938194 12.4973611,24.9938194 C12.5508333,24.9938194 12.6036111,24.986875 12.6570833,24.9854861 C12.6709722,24.986875 12.6827778,24.9938194 12.6966667,24.9938194 L24.3390278,24.9938194 C24.7001389,24.9938194 24.9931944,24.7007639 24.9931944,24.3396528 C24.9931944,23.9778472 24.7001389,23.6847917 24.3390278,23.6847917" id="Fill-1" fill="#231F20" mask="url(#mask-10)"></path>
                    </g>
                    <g id="Group-3" transform="translate(413.000000, 3.000000)">
                        <mask id="mask-12" fill="white">
                            <use xlink:href="#path-11"></use>
                        </mask>
                        <g id="Clip-2"></g>
                        <path d="M1.3608,19.9375355 L1.3608,12.4660516 L6.45797647,12.4660516 L8.56291765,14.5858581 C8.69138824,14.7150194 8.86362353,14.7866968 9.04432941,14.7866968 L14.9476235,14.7866968 C15.1297412,14.7866968 15.3019765,14.7150194 15.4304471,14.5858581 L17.5353882,12.4660516 L22.6325647,12.4660516 L22.6325647,19.9375355 L1.3608,19.9375355 Z M5.25021176,1.37095484 L18.7417412,1.37095484 L22.3346824,11.0949548 L17.2530353,11.0949548 C17.0723294,11.0949548 16.9000941,11.1673419 16.7716235,11.2957935 L14.6666824,13.4163097 L9.32668235,13.4163097 L7.22174118,11.2957935 C7.09327059,11.1673419 6.92103529,11.0949548 6.73891765,11.0949548 L1.66009412,11.0949548 L5.25021176,1.37095484 Z M23.9709176,11.6641161 C23.9638588,11.6222452 23.9666824,11.5825032 23.9518588,11.5413419 L19.8528,0.446245161 C19.7539765,0.177277419 19.4998588,-0.000141935484 19.2146824,-0.000141935484 L4.77727059,-0.000141935484 C4.49209412,-0.000141935484 4.23797647,0.177277419 4.13915294,0.446245161 L0.0415058824,11.5413419 C0.0259764706,11.5825032 0.0302117647,11.6222452 0.0231529412,11.6641161 C0.0168,11.7024387 -0.000141176471,11.7386323 -0.000141176471,11.7805032 L-0.000141176471,20.6223742 C-0.000141176471,21.0013419 0.3048,21.3086323 0.679623529,21.3086323 L23.3137412,21.3086323 C23.6899765,21.3086323 23.9942118,21.0013419 23.9942118,20.6223742 L23.9942118,11.7805032 C23.9942118,11.7386323 23.9779765,11.7024387 23.9709176,11.6641161 L23.9709176,11.6641161 Z" id="Fill-1" fill="#231F20" mask="url(#mask-12)"></path>
                    </g>
                    <g id="Group-3" transform="translate(494.000000, 1.000000)">
                        <mask id="mask-14" fill="white">
                            <use xlink:href="#path-13"></use>
                        </mask>
                        <g id="Clip-2"></g>
                        <path d="M9.21683125,8.12085405 C8.28595625,8.12085405 7.53039375,8.87977297 7.53039375,9.81858378 C7.53039375,10.7566919 8.28595625,11.5170162 9.21683125,11.5170162 C10.1511438,11.5170162 10.9046438,10.7566919 10.9046438,9.81858378 C10.9046438,8.87977297 10.1511438,8.12085405 9.21683125,8.12085405 L9.21683125,8.12085405 Z M16.2650812,8.12085405 C15.3321437,8.12085405 14.5758938,8.87977297 14.5758938,9.81858378 C14.5758938,10.7566919 15.3321437,11.5170162 16.2650812,11.5170162 C17.1952687,11.5170162 17.9515187,10.7566919 17.9515187,9.81858378 C17.9515187,8.87977297 17.1952687,8.12085405 16.2650812,8.12085405 L16.2650812,8.12085405 Z M20.6252062,23.0764757 L19.5774562,21.5382595 C19.2378312,21.0231784 18.7139562,20.7273405 18.1405812,20.7273405 C17.6359562,20.7273405 17.1457687,20.9683676 16.7978938,21.3899892 L14.8632688,23.7264757 C14.6618312,23.9703135 14.3620812,23.9717189 14.1592688,23.7264757 L12.2273937,21.3913946 C11.5034562,20.5165297 10.1353313,20.5165297 9.41139375,21.3906919 L7.47951875,23.7264757 C7.27808125,23.9710162 6.98245625,23.9689081 6.78514375,23.7285838 L4.86083125,21.3899892 C4.50745625,20.9627459 4.04201875,20.7273405 3.54770625,20.7273405 C2.99839375,20.7273405 2.48689375,21.0231784 2.13901875,21.5473946 L1.37520625,22.7469081 L1.37520625,11.0342595 C1.37520625,5.71339459 5.69339375,1.38334054 11.0002062,1.38334054 C16.3070187,1.38334054 20.6252062,5.71339459 20.6252062,11.0342595 L20.6252062,23.0764757 Z M11.0002062,-0.000281081081 C4.93439375,-0.000281081081 0.00020625,4.94955676 0.00020625,11.0342595 L0.00020625,23.8487459 C0.00020625,25.0131243 0.56395625,25.1873946 0.89945625,25.1873946 C1.37383125,25.1873946 1.69214375,24.8009081 1.92039375,24.4544757 L3.28989375,22.3056108 C3.44801875,22.0666919 3.62676875,22.0603676 3.80276875,22.2746919 L5.72570625,24.6125838 C6.08801875,25.0496649 6.59951875,25.299827 7.13164375,25.299827 C7.66308125,25.299827 8.17458125,25.0496649 8.53620625,24.6125838 L10.4680813,22.2768 C10.6681438,22.0322595 10.9665188,22.0308541 11.1693312,22.2768 L13.1025813,24.6125838 C13.8265187,25.4853405 15.1960188,25.4867459 15.9199563,24.6125838 L17.8538937,22.2768 C18.0374562,22.0540432 18.2712062,22.0589622 18.4389562,22.3119351 L19.9026437,24.4643135 C20.2972687,25.0616108 20.7125187,25.1873946 20.9916437,25.1873946 C21.3436437,25.1873946 21.6578312,24.987827 21.8324562,24.6533405 C21.9438312,24.4397189 22.0002062,24.1691784 22.0002062,23.8487459 L22.0002062,11.0342595 C22.0002062,4.94955676 17.0653312,-0.000281081081 11.0002062,-0.000281081081 L11.0002062,-0.000281081081 Z" id="Fill-1" fill="#231F20" mask="url(#mask-14)"></path>
                    </g>
                    <path d="M598.619031,20.1360422 L594.746346,18.5862009 L594.746346,16.4157233 L598.619031,14.8651823 L598.619031,20.1360422 Z M574.380969,23.6268586 L593.102979,23.6268586 L593.102979,11.3736662 L574.380969,11.3736662 L574.380969,23.6268586 Z M599.694935,13.2985481 C599.502937,13.1733013 599.260449,13.1495115 599.04854,13.2341755 L594.48537,15.0596996 L594.48537,10.6991529 C594.48537,10.3255117 594.175327,10.0232401 593.794174,10.0232401 L573.690484,10.0232401 C573.30862,10.0232401 573,10.3255117 573,10.6991529 L573,24.3020716 C573,24.6750131 573.30862,24.9772847 573.690484,24.9772847 L582.727936,24.9772847 L580.815771,26.8468901 C580.546261,27.110678 580.546261,27.5381963 580.815771,27.8019842 C581.08528,28.065772 581.522611,28.065772 581.79212,27.8019842 L583.741974,25.8959942 L585.690405,27.8019842 C585.825516,27.934228 586.002581,28 586.178935,28 C586.356001,28 586.532355,27.934228 586.667466,27.8019842 C586.936975,27.5381963 586.936975,27.110678 586.667466,26.8468901 L584.7553,24.9772847 L593.794174,24.9772847 C594.175327,24.9772847 594.48537,24.6750131 594.48537,24.3020716 L594.48537,19.9422246 L599.04854,21.767049 C599.13245,21.8013344 599.221338,21.8174276 599.310227,21.8174276 C599.444626,21.8174276 599.579736,21.7782442 599.694935,21.7026764 C599.885512,21.5774296 600,21.3668191 600,21.1422146 L600,13.8597096 C600,13.6344054 599.885512,13.4237949 599.694935,13.2985481 L599.694935,13.2985481 Z M588.68203,1.35042607 C590.17322,1.35042607 591.386368,2.53782143 591.386368,3.9974011 C591.386368,5.45698078 590.17322,6.64437614 588.68203,6.64437614 C587.189418,6.64437614 585.975559,5.45698078 585.975559,3.9974011 C585.975559,2.53782143 587.189418,1.35042607 588.68203,1.35042607 L588.68203,1.35042607 Z M588.68203,7.99410251 C590.934815,7.99410251 592.768048,6.20146438 592.768048,3.9974011 C592.768048,1.79263813 590.934815,0 588.68203,0 C586.427823,0 584.593879,1.79263813 584.593879,3.9974011 C584.593879,6.20146438 586.427823,7.99410251 588.68203,7.99410251 L588.68203,7.99410251 Z M578.80334,1.35042607 C580.295952,1.35042607 581.509811,2.53782143 581.509811,3.9974011 C581.509811,5.45698078 580.295952,6.64437614 578.80334,6.64437614 C577.311438,6.64437614 576.096868,5.45698078 576.096868,3.9974011 C576.096868,2.53782143 577.311438,1.35042607 578.80334,1.35042607 L578.80334,1.35042607 Z M578.80334,7.99410251 C581.057547,7.99410251 582.89149,6.20146438 582.89149,3.9974011 C582.89149,1.79263813 581.057547,0 578.80334,0 C576.549843,0 574.7159,1.79263813 574.7159,3.9974011 C574.7159,6.20146438 576.549843,7.99410251 578.80334,7.99410251 L578.80334,7.99410251 Z" id="Fill-1" fill="#231F20"></path>
                    <g id="Group-3" transform="translate(657.000000, 0.000000)">
                        <mask id="mask-16" fill="white">
                            <use xlink:href="#path-15"></use>
                        </mask>
                        <g id="Clip-2"></g>
                        <path d="M20.408125,23.44888 C18.2949306,25.54468 15.4852083,26.69898 12.4970139,26.69898 C9.50951389,26.69898 6.69979167,25.54468 4.58659722,23.44888 C2.47340278,21.35308 1.30951389,18.56638 1.30951389,15.60398 C1.30951389,12.64018 2.47270833,9.85348 4.58659722,7.75768 C6.69840278,5.66188 9.50881944,4.50758 12.4963194,4.50758 C15.4852083,4.50758 18.2949306,5.66188 20.408125,7.75768 C22.5213194,9.85278 23.6852083,12.64018 23.6852083,15.60398 C23.6852083,18.56778 22.520625,21.35378 20.408125,23.44888 M21.3345139,6.83928 C19.8490972,5.36788 18.0560417,4.31298 16.1004861,3.73128 C16.1122917,3.71378 16.126875,3.69978 16.1365972,3.68088 L17.5185417,0.94038 C17.6803472,0.61978 17.5490972,0.22988 17.2254861,0.06958 C16.9011806,-0.09142 16.5102083,0.03948 16.3470139,0.36008 L14.9650694,3.09988 C14.9095139,3.21048 14.8997917,3.32668 14.9095139,3.44008 C14.1650694,3.29728 13.4011806,3.22308 12.626875,3.21608 L13.7734028,0.94038 C13.9352083,0.61978 13.8039583,0.22988 13.4803472,0.06958 C13.1574306,-0.09142 12.7629861,0.03948 12.6025694,0.36008 L11.2213194,3.09988 C11.1921528,3.15868 11.1824306,3.22028 11.1713194,3.28118 C10.3046528,3.37148 9.46020833,3.55488 8.64354167,3.81598 L10.0338194,0.92988 C10.189375,0.60578 10.0511806,0.21798 9.72409722,0.06398 C9.39770833,-0.09142 9.008125,0.04648 8.851875,0.36988 L6.895625,4.43268 C6.87895833,4.46838 6.87756944,4.50548 6.86784722,4.54328 C5.69770833,5.12988 4.61368056,5.89428 3.66090278,6.83928 C1.29979167,9.17938 -0.000902777778,12.29228 -0.000208333333,15.60398 C-0.000208333333,18.91358 1.29979167,22.02718 3.66090278,24.36728 C6.02131944,26.70808 9.15951389,27.99748 12.4970139,27.99748 C15.8352083,27.99748 18.9734028,26.70808 21.3345139,24.36728 C23.6928472,22.02718 24.9935417,18.91428 24.9942361,15.60398 C24.9942361,12.29228 23.6942361,9.18008 21.3345139,6.83928 M15.2720139,20.21278 C14.5213194,20.93168 13.5365972,21.32858 12.4970139,21.32858 C11.4567361,21.32858 10.4713194,20.93168 9.72131944,20.21278 C9.46090278,19.96288 9.04701389,19.96988 8.795625,20.22748 C8.54423611,20.48508 8.55118056,20.89668 8.81159722,21.14518 C9.80534722,22.10068 11.1150694,22.62708 12.4970139,22.62708 C13.8789583,22.62708 15.1872917,22.10068 16.1824306,21.14518 C16.4421528,20.89668 16.4490972,20.48508 16.1984028,20.22748 C15.9463194,19.96988 15.5324306,19.96358 15.2720139,20.21278" id="Fill-1" fill="#231F20" mask="url(#mask-16)"></path>
                    </g>
                    <g id="Group-3" transform="translate(739.000000, 1.000000)">
                        <mask id="mask-18" fill="white">
                            <use xlink:href="#path-17"></use>
                        </mask>
                        <g id="Clip-2"></g>
                        <path d="M9.73492857,7.45054595 L9.73492857,4.41978919 L22.9142143,1.52043784 L22.9142143,4.5526 L9.73492857,7.45054595 Z M19.4292143,20.7976811 C17.5077857,20.7976811 15.9435,19.2700054 15.9435,17.3930865 C15.9435,15.5154649 17.5077857,13.9877892 19.4292143,13.9877892 C21.3513571,13.9877892 22.9142143,15.5154649 22.9142143,17.3930865 C22.9142143,19.2700054 21.3513571,20.7976811 19.4292143,20.7976811 L19.4292143,20.7976811 Z M4.86707143,23.9654649 C2.94564286,23.9654649 1.38278571,22.4377892 1.38278571,20.5601676 C1.38278571,18.6811405 2.94564286,17.1541676 4.86707143,17.1541676 C6.7885,17.1541676 8.35135714,18.6811405 8.35135714,20.5601676 C8.35135714,22.4377892 6.7885,23.9654649 4.86707143,23.9654649 L4.86707143,23.9654649 Z M24.0377857,0.147356757 C23.8742143,0.0201675676 23.6606429,-0.0297243243 23.4542143,0.0173567568 L8.89135714,3.21957297 C8.57635714,3.28914054 8.35135714,3.56249189 8.35135714,3.87941081 L8.35135714,17.2455189 C7.46635714,16.3566 6.23278571,15.8021676 4.86707143,15.8021676 C2.18278571,15.8021676 -7.14285714e-05,17.9362757 -7.14285714e-05,20.5601676 C-7.14285714e-05,23.1833568 2.18278571,25.3174649 4.86707143,25.3174649 C7.55135714,25.3174649 9.73492857,23.1833568 9.73492857,20.5601676 L9.73492857,8.83557297 L22.9142143,5.93832973 L22.9142143,14.0798432 C22.0299286,13.1902216 20.7949286,12.6364919 19.4292143,12.6364919 C16.7442143,12.6364919 14.5613571,14.7698973 14.5613571,17.3930865 C14.5613571,20.015573 16.7442143,22.1496811 19.4292143,22.1496811 C22.1135,22.1496811 24.2977857,20.015573 24.2977857,17.3930865 L24.2977857,0.675789189 C24.2977857,0.469897297 24.2027857,0.275951351 24.0377857,0.147356757 L24.0377857,0.147356757 Z" id="Fill-1" fill="#231F20" mask="url(#mask-18)"></path>
                    </g>
                </g>
                <g id="Group-4" transform="translate(0.000000, 58.000000)">
                    <g id="Group-3" transform="translate(0.000000, 1.000000)">
                        <mask id="mask-20" fill="white">
                            <use xlink:href="#path-19"></use>
                        </mask>
                        <g id="Clip-2"></g>
                        <path d="M16.7941071,15.14072 C16.6359881,15.67272 16.4350595,16.18092 16.1954643,16.66952 L16.1664643,16.66952 C15.839869,16.09342 15.6037262,15.56002 15.4594167,15.06792 C15.349631,14.69342 15.2681548,14.36162 15.1991071,14.05152 L17.075131,14.05152 C16.9950357,14.40852 16.9045833,14.76902 16.7941071,15.14072 M12.9495357,15.07562 C12.8052262,15.56352 12.5697738,16.09342 12.2424881,16.66952 L12.2134881,16.66952 C11.9642262,16.18092 11.7619167,15.67272 11.6079405,15.14072 C11.5002262,14.76902 11.4118452,14.40852 11.333131,14.05152 L13.2126071,14.05152 C13.14425,14.36442 13.0607024,14.69902 12.9495357,15.07562 M19.3833929,13.18842 L18.6618452,13.18842 C18.7391786,12.76982 18.7957976,12.37712 18.8358452,12.00962 C18.8738214,11.64562 18.8931548,11.33132 18.8931548,11.06812 C18.8931548,10.77552 18.8303214,10.56132 18.7060357,10.42412 C18.580369,10.28692 18.40775,10.21902 18.1861071,10.21902 C17.9458214,10.21902 17.7752738,10.29672 17.6737738,10.45352 C17.5729643,10.60962 17.5128929,10.77972 17.4935595,10.96522 C17.46525,11.30612 17.4293452,11.70372 17.3851548,12.15732 C17.3547738,12.48632 17.3036786,12.83282 17.2442976,13.18842 L15.074131,13.18842 C15.02925,12.62352 14.9926548,11.87802 14.9622738,11.69392 C14.9187738,11.43072 14.839369,11.24102 14.723369,11.12412 C14.6563929,11.04572 14.5721548,10.99252 14.4720357,10.96312 C14.3705357,10.93372 14.2814643,10.91902 14.2048214,10.91902 C14.1274881,10.91902 14.0411786,10.93372 13.9452024,10.96312 C13.8478452,10.99252 13.766369,11.04572 13.7000833,11.12412 C13.5744167,11.25082 13.4901786,11.44542 13.447369,11.70932 C13.4169881,11.89132 13.3803929,12.62562 13.3362024,13.18842 L11.1646548,13.18842 C11.1052738,12.83282 11.054869,12.48632 11.0237976,12.15732 C10.9802976,11.70372 10.9443929,11.30612 10.9153929,10.96522 C10.8960595,10.77972 10.8332262,10.60962 10.7282738,10.45352 C10.6219405,10.29672 10.4493214,10.21902 10.2083452,10.21902 C9.98739286,10.21902 9.80441667,10.28692 9.66079762,10.42412 C9.51579762,10.56132 9.4439881,10.77552 9.4439881,11.06812 C9.4439881,11.33132 9.46332143,11.64562 9.50129762,12.00962 C9.53996429,12.37712 9.59727381,12.76982 9.67391667,13.18842 L8.96755952,13.18842 C8.82394048,13.18842 8.71553571,13.23252 8.64303571,13.31932 C8.57122619,13.40752 8.53532143,13.50972 8.53532143,13.62802 C8.53532143,13.73442 8.57122619,13.83242 8.64303571,13.91852 C8.71553571,14.00742 8.82394048,14.05152 8.96755952,14.05152 L9.84791667,14.05152 L10.0074167,14.70952 C10.0806071,15.02802 10.173131,15.32622 10.2518452,15.57122 C10.3802738,15.97092 10.5087024,16.34752 10.648869,16.69822 C10.7883452,17.04962 10.9367976,17.35692 11.0956071,17.62012 C11.2544167,17.88262 11.420131,18.09122 11.5934405,18.24172 C11.76675,18.39292 11.9442024,18.46712 12.1271786,18.46712 C12.3488214,18.46712 12.5649405,18.35092 12.7769167,18.11712 C12.9875119,17.88262 13.1822262,17.59352 13.3610595,17.24702 C13.5385119,16.90052 13.6973214,16.53792 13.8367976,16.15712 C13.9762738,15.77632 14.0839881,15.44032 14.1613214,15.14772 L14.1758214,15.14772 C14.2434881,15.44032 14.3484405,15.77632 14.4934405,16.15712 C14.6370595,16.53792 14.8007024,16.90052 14.9836786,17.24702 C15.1659643,17.59352 15.3662024,17.88262 15.5823214,18.11712 C15.799131,18.35092 16.0173214,18.46712 16.2382738,18.46712 C16.4115833,18.46712 16.5848929,18.39292 16.7582024,18.24172 C16.9308214,18.09122 17.0951548,17.88262 17.2484405,17.62012 C17.4024167,17.35692 17.5515595,17.04962 17.695869,16.69822 C17.8401786,16.34752 17.9699881,15.97232 18.0852976,15.57122 C18.20475,15.13722 18.2924405,14.86842 18.3311071,14.70952 L18.4885357,14.05152 L19.3833929,14.05152 C19.5277024,14.05152 19.6354167,14.00742 19.7092976,13.91852 C19.7804167,13.83242 19.8163214,13.73442 19.8163214,13.62802 C19.8163214,13.50972 19.7804167,13.40752 19.7092976,13.31932 C19.6354167,13.23252 19.5277024,13.18842 19.3833929,13.18842 M24.3175357,17.36462 C25.5479643,20.88842 24.2995833,23.01292 20.4432738,22.81832 C19.4759167,26.33092 17.36375,27.09112 14.1744405,24.90152 C11.0493452,27.09112 9.06767857,26.39672 7.90491667,22.81832 C4.02789286,22.90302 2.97284524,21.41342 4.03065476,17.36462 C0.864821429,15.09592 0.864821429,13.02322 4.03065476,10.62292 C2.95144048,6.70502 3.94158333,4.97532 7.90491667,5.16852 C9.00208333,1.39342 10.7469167,0.74312 14.1744405,3.08532 C17.3423452,0.76482 19.2597976,1.43752 20.4432738,5.16852 C24.1055595,4.99702 25.525869,6.68332 24.3175357,10.62292 C27.4405595,12.80412 27.526869,14.76762 24.3175357,17.36462 M26.0547738,10.02722 C26.990369,6.06242 25.4761548,3.92462 21.5128214,3.61102 C19.9986071,-0.16058 17.5487976,-0.97818 14.1627024,1.16102 C10.7772976,-0.97818 8.3274881,-0.16058 6.81396429,3.61102 C2.84994048,3.92462 1.33572619,6.06242 2.27132143,10.02722 C-0.757107143,12.67182 -0.757107143,15.31572 2.27132143,17.95892 C1.33572619,21.92442 2.84994048,24.06362 6.81396429,24.37582 C8.3274881,28.14812 10.7772976,28.96572 14.1627024,26.82582 C17.5487976,28.96572 19.9986071,28.14812 21.5128214,24.37582 C25.4761548,24.06362 26.990369,21.92442 26.0547738,17.95892 C29.0832024,15.31572 29.0832024,12.67182 26.0547738,10.02722" id="Fill-1" fill="#231F20" mask="url(#mask-20)"></path>
                    </g>
                    <g id="Group-3" transform="translate(739.000000, 0.000000)">
                        <mask id="mask-22" fill="white">
                            <use xlink:href="#path-21"></use>
                        </mask>
                        <g id="Clip-2"></g>
                        <path d="M23.1857143,18.6300951 C22.8785714,18.3259488 22.3807143,18.3259488 22.0735714,18.6300951 L22.075,18.6315098 L15.6635714,24.9803878 C14.1042857,26.5251683 12.0307143,27.3753634 9.82571429,27.3753634 C7.62071429,27.3760707 5.54857143,26.5251683 3.98857143,24.9810951 C2.43,23.437022 1.57142857,21.3850951 1.57142857,19.2016073 C1.57142857,17.0174122 2.43,14.9640707 3.99071429,13.4214122 L14.4392857,3.07194878 C16.4828571,1.04972927 19.8078571,1.04972927 21.8507143,3.07194878 C23.8928571,5.09558293 23.8928571,8.38602195 21.8485714,10.4082415 L11.0128571,21.1403634 C10.1428571,22.0018756 8.72857143,22.0018756 7.86,21.141778 C7.43857143,20.7251683 7.20642857,20.1699244 7.20642857,19.580022 C7.20642857,18.9901195 7.43785714,18.4355829 7.86,18.0189732 L14.6585714,11.286022 C14.9642857,10.9818756 14.9642857,10.4888756 14.6578571,10.1854366 C14.3507143,9.88129024 13.8528571,9.88129024 13.5457143,10.1854366 L6.74857143,16.9176805 C6.03071429,17.6285341 5.635,18.5742171 5.635,19.580022 C5.635,20.5851195 6.03,21.5308024 6.74928571,22.2423634 C8.23071429,23.709339 10.6414286,23.7086317 12.1242857,22.2402415 L22.9592857,11.5088268 C25.6157143,8.88043659 25.6164286,4.60187561 22.9621429,1.97136341 C20.3071429,-0.657026829 15.9835714,-0.657734146 13.3278571,1.97136341 L2.87928571,12.3201195 C1.02285714,14.1584366 0,16.6022171 0,19.2016073 C0,21.7995829 1.02285714,24.2440707 2.87714286,26.0816805 C4.73357143,27.9178756 7.20142857,28.9321683 9.82571429,28.9307537 C12.4507143,28.9307537 14.9185714,27.9178756 16.7742857,26.0802659 L23.1857143,19.7313878 C23.4935714,19.4272415 23.4935714,18.9342415 23.1857143,18.6300951" id="Fill-1" fill="#231F20" mask="url(#mask-22)"></path>
                    </g>
                    <g id="Group-3" transform="translate(171.000000, 2.000000)">
                        <mask id="mask-24" fill="white">
                            <use xlink:href="#path-23"></use>
                        </mask>
                        <g id="Clip-2"></g>
                        <path d="M1.26934074,1.82342857 L1.26934074,22.4805714 L17.1702296,12.152 L1.26934074,1.82342857 Z M0.635303704,24.3048571 C0.529748148,24.3048571 0.4256,24.2784286 0.329896296,24.2248571 C0.126525926,24.1112857 -0.000140740741,23.8941429 -0.000140740741,23.6584286 L-0.000140740741,0.645571429 C-0.000140740741,0.409857143 0.126525926,0.192714286 0.329896296,0.0791428571 C0.533266667,-0.0337142857 0.782377778,-0.0258571429 0.975896296,0.101285714 L18.6902296,11.6077143 C18.8731926,11.7262857 18.9836741,11.9312857 18.9836741,12.152 C18.9836741,12.3727143 18.8731926,12.5777143 18.6902296,12.6962857 L0.975896296,24.2027143 C0.873155556,24.2705714 0.75422963,24.3048571 0.635303704,24.3048571 L0.635303704,24.3048571 Z" id="Fill-1" fill="#010202" mask="url(#mask-24)"></path>
                    </g>
                    <g id="Group-3" transform="translate(246.000000, 1.000000)">
                        <mask id="mask-26" fill="white">
                            <use xlink:href="#path-25"></use>
                        </mask>
                        <g id="Clip-2"></g>
                        <path d="M13.6884244,17.9878154 C13.6947902,17.9940462 13.703278,17.9961231 13.7096439,18.0023538 C13.7662293,18.0535846 13.8298878,18.0985846 13.9034488,18.1283538 C13.9840829,18.1608923 14.0696683,18.1782 14.155961,18.1782 C14.2415463,18.1782 14.3271317,18.1615846 14.4077659,18.1283538 C14.4898146,18.0951231 14.5633756,18.0466615 14.6249122,17.9857385 L19.0902049,13.5840462 C19.3483756,13.3285846 19.3483756,12.9166615 19.0902049,12.6618923 C18.8313268,12.4071231 18.4140098,12.4071231 18.1551317,12.6618923 L14.8173024,15.9538154 L14.8173024,0.651738462 C14.8173024,0.291046154 14.5216439,0.000276923077 14.155961,0.000276923077 C13.7916927,0.000276923077 13.4960341,0.291046154 13.4960341,0.651738462 L13.4960341,15.9545077 L10.1553756,12.6618923 C9.8979122,12.4071231 9.4798878,12.4071231 9.22171707,12.6618923 C8.96283902,12.9166615 8.96283902,13.3285846 9.22171707,13.5840462 L13.6884244,17.9878154 Z M25.3584488,4.82981538 L21.5926927,4.82981538 C21.2270098,4.82981538 20.9320585,5.12196923 20.9320585,5.48196923 C20.9320585,5.84196923 21.2270098,6.13343077 21.5926927,6.13343077 L25.3584488,6.13343077 C26.2581561,6.13343077 26.9902293,6.85550769 26.9902293,7.74373846 L26.9902293,23.4023538 C26.9902293,24.2905846 26.2581561,25.0119692 25.3584488,25.0119692 L2.95347317,25.0119692 C2.05447317,25.0119692 1.3224,24.2905846 1.3224,23.4023538 L1.3224,7.74373846 C1.3224,6.85550769 2.05447317,6.13343077 2.95347317,6.13343077 L6.71922927,6.13343077 C7.08420488,6.13343077 7.37986341,5.84196923 7.37986341,5.48196923 C7.37986341,5.12196923 7.08420488,4.82981538 6.71922927,4.82981538 L2.95347317,4.82981538 C1.32522927,4.82981538 -0.000282926829,6.13758462 -0.000282926829,7.74373846 L-0.000282926829,23.4023538 C-0.000282926829,25.0085077 1.32522927,26.3155846 2.95347317,26.3155846 L25.3584488,26.3155846 C26.9866927,26.3155846 28.3122049,25.0085077 28.3122049,23.4023538 L28.3122049,7.74373846 C28.3122049,6.13758462 26.9866927,4.82981538 25.3584488,4.82981538 L25.3584488,4.82981538 Z" id="Fill-1" fill="#010202" mask="url(#mask-26)"></path>
                    </g>
                    <g id="Group-3" transform="translate(328.000000, 1.000000)">
                        <mask id="mask-28" fill="white">
                            <use xlink:href="#path-27"></use>
                        </mask>
                        <g id="Clip-2"></g>
                        <path d="M26.9900171,23.3804769 C26.9900171,24.2756308 26.2579439,25.0032462 25.3582366,25.0032462 L2.95396829,25.0032462 C2.05426098,25.0032462 1.3221878,24.2756308 1.3221878,23.3804769 L1.3221878,7.59932308 C1.3221878,6.70486154 2.05426098,5.97655385 2.95396829,5.97655385 L25.3582366,5.97655385 C26.2579439,5.97655385 26.9900171,6.70486154 26.9900171,7.59932308 L26.9900171,23.3804769 Z M25.3582366,4.66393846 L15.5852366,4.66393846 L18.6811634,1.08401538 C18.9181146,0.808476923 18.8869927,0.395169231 18.6097244,0.1584 C18.334578,-0.0776769231 17.917261,-0.0465230769 17.6774805,0.229015385 L14.1557488,4.30255385 L10.6347244,0.229015385 C10.3963585,-0.0465230769 9.97833415,-0.0776769231 9.70248049,0.1584 C9.42591951,0.395169231 9.39409024,0.808476923 9.63174878,1.08401538 L12.726261,4.66393846 L2.95396829,4.66393846 C1.32501707,4.66393846 0.000212195122,5.98070769 0.000212195122,7.59932308 L0.000212195122,23.3804769 C0.000212195122,24.9990923 1.32501707,26.3165538 2.95396829,26.3165538 L25.3582366,26.3165538 C26.9871878,26.3165538 28.3112854,24.9990923 28.3112854,23.3804769 L28.3112854,7.59932308 C28.3112854,5.98070769 26.9871878,4.66393846 25.3582366,4.66393846 L25.3582366,4.66393846 Z" id="Fill-1" fill="#010202" mask="url(#mask-28)"></path>
                    </g>
                    <g id="Group-3" transform="translate(410.000000, 2.000000)">
                        <mask id="mask-30" fill="white">
                            <use xlink:href="#path-29"></use>
                        </mask>
                        <g id="Clip-2"></g>
                        <path d="M26.3296659,22.4068703 C26.3296659,23.2936811 25.5975927,24.0146541 24.6978854,24.0146541 L14.8166659,24.0146541 L14.8166659,12.3020054 L26.3296659,12.3020054 L26.3296659,22.4068703 Z M1.98239756,22.4068703 L1.98239756,12.3020054 L13.4946902,12.3020054 L13.4946902,24.0146541 L3.61559268,24.0146541 C2.71447073,24.0146541 1.98239756,23.2936811 1.98239756,22.4068703 L1.98239756,22.4068703 Z M1.32176341,6.76822162 C1.32176341,5.88211351 2.0545439,5.16043784 2.95425122,5.16043784 L13.4946902,5.16043784 L13.4946902,11.0006 L1.32176341,11.0006 L1.32176341,6.76822162 Z M6.83317805,3.11416757 C6.59269024,2.67708649 6.65210488,2.15638378 6.83034878,1.88724865 C7.02273902,1.59562703 7.57090976,1.30119459 8.36027561,1.30119459 C8.84408049,1.30119459 9.59312927,1.41432973 10.4114951,1.9518973 C11.303422,2.53724865 12.1041049,3.27016757 12.6833976,3.85903243 L8.46495854,3.85903243 C7.66569024,3.85903243 7.10125122,3.60114054 6.83317805,3.11416757 L6.83317805,3.11416757 Z M17.899861,1.9518973 C18.7189341,1.41432973 19.4679829,1.30119459 19.9517878,1.30119459 C20.741861,1.30119459 21.2893244,1.59562703 21.4817146,1.88724865 C21.6599585,2.15638378 21.7186659,2.67708649 21.4795927,3.11416757 C21.2108122,3.60114054 20.6463732,3.85903243 19.8463976,3.85903243 L15.6272512,3.85903243 C16.2065439,3.27087027 17.0058122,2.53935676 17.899861,1.9518973 L17.899861,1.9518973 Z M26.9903,6.76822162 L26.9903,11.0006 L14.8166659,11.0006 L14.8166659,5.16043784 L25.3585195,5.16043784 C26.2582268,5.16043784 26.9903,5.88211351 26.9903,6.76822162 L26.9903,6.76822162 Z M25.3585195,3.85903243 L22.5639098,3.85903243 C22.5900805,3.81757297 22.6197878,3.7733027 22.6410073,3.73465405 C23.0866171,2.92373514 23.0661049,1.89638378 22.5900805,1.17681622 C22.1091049,0.451627027 21.0983488,-0.000210810811 19.9517878,-0.000210810811 C18.9954951,-0.000210810811 18.0328366,0.300545946 17.1677878,0.869032432 C15.8613732,1.72562703 14.7664463,2.83238378 14.1560317,3.50557297 C13.5456171,2.83238378 12.4506902,1.72562703 11.1442756,0.869032432 C10.2799341,0.300545946 9.31656829,-0.000210810811 8.36027561,-0.000210810811 C7.21442195,-0.000210810811 6.20295854,0.451627027 5.72198293,1.17681622 C5.24595854,1.89638378 5.22544634,2.92373514 5.6710561,3.73465405 C5.69227561,3.7733027 5.72198293,3.81757297 5.74815366,3.85903243 L2.95425122,3.85903243 C1.3253,3.85903243 -0.000212195122,5.16465405 -0.000212195122,6.76822162 L-0.000212195122,11.6506 C-0.000212195122,12.0103838 0.295446341,12.3020054 0.660421951,12.3020054 L0.660421951,22.4068703 C0.660421951,24.0111405 1.98664146,25.3167622 3.61559268,25.3167622 L24.6978854,25.3167622 C26.3261293,25.3167622 27.6509341,24.0111405 27.6509341,22.4068703 L27.6509341,12.3020054 C28.0166171,12.3020054 28.3122756,12.0103838 28.3122756,11.6506 L28.3122756,6.76822162 C28.3122756,5.16465405 26.9874707,3.85903243 25.3585195,3.85903243 L25.3585195,3.85903243 Z" id="Fill-1" fill="#010202" mask="url(#mask-30)"></path>
                    </g>
                    <path d="M509.732411,13.7967687 L505.203565,13.7967687 L505.203565,9.26780456 C505.203565,8.87872313 504.888368,8.5642215 504.5,8.5642215 C504.111632,8.5642215 503.795732,8.87872313 503.795732,9.26780456 L503.795732,14.5003518 C503.795732,14.8894332 504.111632,15.2039349 504.5,15.2039349 L509.732411,15.2039349 C510.120779,15.2039349 510.435272,14.8894332 510.435272,14.5003518 C510.435272,14.1112704 510.120779,13.7967687 509.732411,13.7967687 M504.5,26.5935375 C497.831614,26.5935375 492.406426,21.1689121 492.406426,14.5003518 C492.406426,7.83108795 497.831614,2.40716612 504.5,2.40716612 C511.167683,2.40716612 516.592871,7.83108795 516.592871,14.5003518 C516.592871,21.1689121 511.167683,26.5935375 504.5,26.5935375 M504.5,1 C497.055582,1 491,7.056443 491,14.5003518 C491,21.9442606 497.055582,28 504.5,28 C511.943715,28 518,21.9442606 518,14.5003518 C518,7.056443 511.943715,1 504.5,1" id="Fill-1" fill="#010202"></path>
                    <g id="Group-3" transform="translate(572.000000, 2.000000)">
                        <mask id="mask-32" fill="white">
                            <use xlink:href="#path-31"></use>
                        </mask>
                        <g id="Clip-2"></g>
                        <path d="M28.1432976,7.09041081 L24.8521512,4.45668108 C24.6569317,4.29997838 24.3945171,4.25781622 24.1618098,4.34424865 C23.9276878,4.43068108 23.7572244,4.63376216 23.7119561,4.8768973 L22.9544195,9.00808649 C22.9091512,9.25614054 23.0011024,9.50981622 23.196322,9.67214054 C23.3250537,9.78035676 23.4870293,9.83657297 23.6504195,9.83657297 C23.7331756,9.83657297 23.816639,9.82181622 23.8965659,9.79300541 L25.2616878,9.28776216 C26.0418585,11.6158162 26.0701512,14.1188432 25.2963463,16.4988973 C24.3358098,19.4481405 22.2768098,21.8499784 19.497761,23.2610054 C16.4089073,24.8294378 12.8022976,24.9545189 9.60593171,23.6067351 C9.24590732,23.4528432 8.8307122,23.6200865 8.67793171,23.9784649 C8.52585854,24.3354378 8.69278537,24.7472216 9.05280976,24.8997081 C10.6994439,25.5953838 12.4436878,25.9411135 14.1836878,25.9411135 C16.2292488,25.9411135 18.2705659,25.462573 20.1421268,24.5125189 C23.2571512,22.9300324 25.5651268,20.2372757 26.6416634,16.9310595 C27.5152,14.2467351 27.4777122,11.4218703 26.5864927,8.79797838 L27.9459561,8.29554595 C28.184322,8.20770811 28.3569073,7.99900541 28.3979317,7.74884324 C28.4382488,7.50078919 28.3413463,7.24851892 28.1432976,7.09041081 M8.90851707,2.68095135 C11.998078,1.11041081 15.6032732,0.98532973 18.8010537,2.33451892 C19.1596634,2.48841081 19.5755659,2.31976216 19.7290537,1.96278919 C19.8811268,1.60581622 19.7134927,1.19262703 19.3541756,1.04224865 C15.7709073,-0.472075676 11.7278829,-0.330832432 8.26485854,1.42873514 C5.14983415,3.00981622 2.84185854,5.70257297 1.76532195,9.01019459 C0.891078049,11.6938162 0.928565854,14.5179784 1.81978537,17.142573 L0.461029268,17.6450054 C0.222663415,17.7335459 0.0500780488,17.9408432 0.00905365854,18.1910054 C-0.0312634146,18.4404649 0.0656390244,18.6920324 0.263687805,18.8508432 L3.55412683,21.484573 C3.68215122,21.5864649 3.83988293,21.6398703 3.99832195,21.6398703 C4.08107805,21.6398703 4.16524878,21.6251135 4.24517561,21.5963027 C4.47859024,21.5098703 4.64976098,21.3074919 4.69432195,21.0636541 L5.45256585,16.9338703 C5.49783415,16.6837081 5.40588293,16.4314378 5.21066341,16.2684108 C5.01615122,16.1060865 4.74807805,16.0611135 4.5097122,16.1489514 L3.14459024,16.6527892 C2.36512683,14.3247351 2.33683415,11.8210054 3.11063902,9.44305946 C4.07117561,6.49311351 6.13017561,4.09127568 8.90851707,2.68095135" id="Fill-1" fill="#010202" mask="url(#mask-32)"></path>
                    </g>
                    <g id="Group-3" transform="translate(655.000000, 2.000000)">
                        <mask id="mask-34" fill="white">
                            <use xlink:href="#path-33"></use>
                        </mask>
                        <g id="Clip-2"></g>
                        <path d="M22.23865,24.0757892 L14.48055,24.0757892 L14.48055,13.6146541 L24.70685,13.6146541 L22.23865,24.0757892 Z M2.85425,13.6146541 L13.08055,13.6146541 L13.08055,24.0757892 L5.32245,24.0757892 L2.85425,13.6146541 Z M1.39965,12.2092486 L13.08055,12.2092486 L13.08055,7.30016757 L1.39965,7.30016757 L1.39965,12.2092486 Z M2.88365,2.29341081 C3.33655,1.69470811 3.96655,1.40519459 4.81005,1.40519459 C6.09595,1.40519459 7.76755,2.09595135 9.51545,3.35027568 C10.58295,4.11622162 11.71135,4.98616757 12.47715,5.89616757 L5.23425,5.89616757 C4.11355,5.63968108 3.22245,4.88076216 2.83885,3.85270811 C2.60785,3.23222162 2.62465,2.63351892 2.88365,2.29341081 L2.88365,2.29341081 Z M18.04635,3.35027568 C19.79425,2.09595135 21.46515,1.40519459 22.75175,1.40519459 C23.59455,1.40519459 24.22455,1.69470811 24.67745,2.29341081 C24.93645,2.63351892 24.95325,3.23222162 24.72225,3.85270811 C24.33935,4.88076216 23.44755,5.63968108 22.32685,5.89616757 L15.08395,5.89616757 C15.84975,4.98616757 16.97815,4.11622162 18.04635,3.35027568 L18.04635,3.35027568 Z M14.48055,12.2092486 L26.16145,12.2092486 L26.16145,7.30016757 L14.48055,7.30016757 L14.48055,12.2092486 Z M26.86145,5.89616757 L25.06035,5.89616757 C25.48035,5.45346486 25.81495,4.93135676 26.03405,4.3438973 C26.43725,3.25962703 26.34695,2.17535676 25.79185,1.44243784 C25.07575,0.498005405 24.02505,-0.000210810811 22.75175,-0.000210810811 C20.73225,-0.000210810811 18.63505,1.20070811 17.23155,2.20697838 C15.92605,3.14438378 14.64015,4.15697838 13.78055,5.28762703 C12.92095,4.15697838 11.63505,3.14438378 10.32885,2.20697838 C8.92605,1.20070811 6.83025,-0.000210810811 4.81005,-0.000210810811 C3.53605,-0.000210810811 2.48535,0.498005405 1.76925,1.44243784 C1.21415,2.17535676 1.12385,3.25962703 1.52705,4.3438973 C1.74615,4.93135676 2.08075,5.45346486 2.50075,5.89616757 L0.69965,5.89616757 C0.31395,5.89616757 -0.00035,6.20887027 -0.00035,6.59746486 L-0.00035,12.9133568 C-0.00035,13.3005459 0.31395,13.6146541 0.69965,13.6146541 L1.41435,13.6146541 L4.08695,24.9401135 C4.16255,25.2577351 4.44465,25.4811946 4.76875,25.4811946 L22.79235,25.4811946 C23.11715,25.4811946 23.39855,25.2577351 23.47345,24.9401135 L26.14675,13.6146541 L26.86145,13.6146541 C27.24785,13.6146541 27.56145,13.3005459 27.56145,12.9133568 L27.56145,6.59746486 C27.56145,6.20887027 27.24785,5.89616757 26.86145,5.89616757 L26.86145,5.89616757 Z" id="Fill-1" fill="#010202" mask="url(#mask-34)"></path>
                    </g>
                    <g id="Group-3" transform="translate(85.000000, 1.000000)">
                        <mask id="mask-36" fill="white">
                            <use xlink:href="#path-35"></use>
                        </mask>
                        <g id="Clip-2"></g>
                        <path d="M12.3175385,13.3701923 C12.2483077,13.6782692 12.1659231,14.0098846 12.0537692,14.3830385 C11.9090769,14.8641923 11.673,15.3889615 11.3455385,15.9580385 L11.3164615,15.9580385 C11.0651538,15.4768846 10.8636923,14.9721923 10.7093077,14.4467308 C10.6013077,14.0798077 10.5126923,13.7232692 10.4330769,13.3701923 L12.3175385,13.3701923 Z M16.191,13.3701923 C16.1106923,13.7232692 16.02,14.0798077 15.9085385,14.4467308 C15.75,14.9721923 15.5492308,15.4768846 15.3083077,15.9580385 L15.2799231,15.9580385 C14.9524615,15.3889615 14.7156923,14.8614231 14.571,14.3747308 C14.4609231,14.0043462 14.3785385,13.6755 14.3106923,13.3701923 L16.191,13.3701923 Z M7.73653846,12.6467308 C7.66384615,12.7332692 7.62853846,12.8336538 7.62853846,12.9513462 C7.62853846,13.0565769 7.66384615,13.1528077 7.73653846,13.2393462 C7.80853846,13.3258846 7.91792308,13.3701923 8.06192308,13.3701923 L8.94461538,13.3701923 L9.10315385,14.0202692 C9.17792308,14.3359615 9.27069231,14.6301923 9.34961538,14.8738846 C9.47769231,15.2685 9.60715385,15.6402692 9.747,15.9864231 C9.88615385,16.3339615 10.0356923,16.6385769 10.1956154,16.8995769 C10.3541538,17.1591923 10.5203077,17.3648077 10.6947692,17.5129615 C10.8678462,17.6631923 11.0457692,17.7379615 11.2299231,17.7379615 C11.4507692,17.7379615 11.6688462,17.6216538 11.8806923,17.3904231 C12.0925385,17.1591923 12.2877692,16.8725769 12.4670769,16.5298846 C12.645,16.1865 12.8042308,15.8285769 12.9433846,15.4526538 C13.0825385,15.0753462 13.1926154,14.7423462 13.2694615,14.4529615 L13.284,14.4529615 C13.3504615,14.7423462 13.4570769,15.0753462 13.6017692,15.4526538 C13.7457692,15.8285769 13.9105385,16.1865 14.0933077,16.5298846 C14.2767692,16.8725769 14.4768462,17.1591923 14.6942308,17.3904231 C14.9109231,17.6216538 15.1296923,17.7379615 15.3519231,17.7379615 C15.5256923,17.7379615 15.6994615,17.6631923 15.8732308,17.5129615 C16.047,17.3648077 16.2103846,17.1591923 16.3647692,16.8995769 C16.5184615,16.6385769 16.668,16.3339615 16.812,15.9864231 C16.9580769,15.6402692 17.0882308,15.2698846 17.2031538,14.8738846 C17.3229231,14.4439615 17.4108462,14.1774231 17.4496154,14.0202692 L17.6088462,13.3701923 L18.5053846,13.3701923 C18.6493846,13.3701923 18.7580769,13.3258846 18.8307692,13.2393462 C18.9041538,13.1528077 18.9387692,13.0565769 18.9387692,12.9513462 C18.9387692,12.8336538 18.9041538,12.7332692 18.8307692,12.6467308 C18.7580769,12.5601923 18.6493846,12.5158846 18.5053846,12.5158846 L17.7819231,12.5158846 C17.8587692,12.1018846 17.9169231,11.7135 17.9563846,11.3514231 C17.9937692,10.9900385 18.0138462,10.6791923 18.0138462,10.4181923 C18.0138462,10.1288077 17.9508462,9.91834615 17.8255385,9.78126923 C17.6995385,9.64626923 17.5257692,9.57980769 17.3042308,9.57980769 C17.0633077,9.57980769 16.8916154,9.65734615 16.7912308,9.81103846 C16.6901538,9.96542308 16.6299231,10.1343462 16.6098462,10.3171154 C16.5814615,10.6549615 16.5454615,11.0475 16.5018462,11.4961154 C16.47,11.8221923 16.4201538,12.1655769 16.3606154,12.5158846 L14.184,12.5158846 C14.1396923,11.9571923 14.1023077,11.2205769 14.0718462,11.0378077 C14.0289231,10.7781923 13.9479231,10.5898846 13.833,10.4735769 C13.7658462,10.3967308 13.6813846,10.3441154 13.5803077,10.3157308 C13.4792308,10.2859615 13.3899231,10.2721154 13.3123846,10.2721154 C13.2355385,10.2721154 13.149,10.2859615 13.0527692,10.3157308 C12.9558462,10.3441154 12.8734615,10.3967308 12.8063077,10.4735769 C12.6803077,10.5995769 12.5958462,10.7913462 12.5536154,11.0523462 C12.5231538,11.2337308 12.4864615,11.9599615 12.4421538,12.5158846 L10.2648462,12.5158846 C10.2046154,12.1655769 10.1547692,11.8221923 10.1229231,11.4961154 C10.08,11.0475 10.0433077,10.6549615 10.0149231,10.3171154 C9.99553846,10.1343462 9.93253846,9.96542308 9.82661538,9.81103846 C9.72,9.65734615 9.54692308,9.57980769 9.306,9.57980769 C9.08446154,9.57980769 8.90030769,9.64626923 8.75561538,9.78126923 C8.61092308,9.91834615 8.53961538,10.1288077 8.53961538,10.4181923 C8.53961538,10.6791923 8.55830769,10.9900385 8.59638462,11.3514231 C8.63584615,11.7135 8.69330769,12.1018846 8.77015385,12.5158846 L8.06192308,12.5158846 C7.91792308,12.5158846 7.80853846,12.5601923 7.73653846,12.6467308 L7.73653846,12.6467308 Z M26.4752308,11.7058846 C26.4302308,11.3258077 26.0833846,11.0551154 25.7067692,11.0987308 C25.3266923,11.1444231 25.0546154,11.4878077 25.0996154,11.8678846 C25.155,12.3331154 25.1833846,12.8101154 25.1833846,13.2850385 C25.1833846,19.8460385 19.8456923,25.1837308 13.284,25.1837308 C6.723,25.1837308 1.38461538,19.8460385 1.38461538,13.2850385 C1.38461538,6.72265385 6.723,1.38496154 13.284,1.38496154 C15.2536154,1.38496154 17.2045385,1.87511538 18.9256154,2.80419231 C19.2634615,2.98696154 19.6823077,2.86096154 19.8636923,2.5245 C20.0450769,2.18803846 19.9190769,1.76711538 19.5833077,1.58642308 C17.6607692,0.548653846 15.4820769,0.000346153846 13.284,0.000346153846 C5.95938462,0.000346153846 0,5.96042308 0,13.2850385 C0,20.6096538 5.95938462,26.5683462 13.284,26.5683462 C20.6093077,26.5683462 26.568,20.6096538 26.568,13.2836538 C26.568,12.7547308 26.5361538,12.2237308 26.4752308,11.7058846 L26.4752308,11.7058846 Z M22.4376923,9.80619231 C22.5733846,9.94119231 22.7506154,10.0090385 22.9271538,10.0090385 C23.1043846,10.0090385 23.2823077,9.94119231 23.4173077,9.80619231 L25.6728462,7.54926923 C25.9435385,7.27857692 25.9435385,6.84034615 25.6728462,6.57034615 C25.4021538,6.29965385 24.9646154,6.29965385 24.6939231,6.57034615 L23.6201538,7.64411538 L23.6201538,1.38496154 C23.6201538,1.00211538 23.31,0.692653846 22.9271538,0.692653846 C22.545,0.692653846 22.2348462,1.00211538 22.2348462,1.38496154 L22.2348462,7.64480769 L21.1603846,6.57034615 C20.8903846,6.29965385 20.4521538,6.29965385 20.1814615,6.57034615 C19.9114615,6.84034615 19.9114615,7.27857692 20.1814615,7.54926923 L22.4376923,9.80619231 Z" id="Fill-1" fill="#010202" mask="url(#mask-36)"></path>
                    </g>
                </g>
            </g>
        </g>
    </g>
</svg>