<?xml version="1.0" encoding="UTF-8"?>
<svg width="765px" height="172px" viewBox="0 0 765 172" version="1.1" xmlns="http://www.w3.org/2000/svg" xmlns:xlink="http://www.w3.org/1999/xlink">
    <!-- Generator: Sketch 53 (72520) - https://sketchapp.com -->
    <title>Group 60</title>
    <desc>Created with Sketch.</desc>
    <defs>
        <polygon id="path-1" points="7.95403912e-05 0.0220611822 41.1460002 0.0220611822 41.1460002 33.618677 7.95403912e-05 33.618677"></polygon>
        <polygon id="path-3" points="7.95403912e-05 0.0220611822 41.1460002 0.0220611822 41.1460002 33.618677 7.95403912e-05 33.618677"></polygon>
    </defs>
    <g id="Page-1" stroke="none" stroke-width="1" fill="none" fill-rule="evenodd">
        <g id="RIDI-Story" transform="translate(-337.000000, -4590.000000)">
            <g id="Group-60" transform="translate(338.000000, 4591.000000)">
                <g id="Group-56" transform="translate(397.000000, 0.000000)">
                    <rect id="Rectangle" fill="#1F8EE6" x="0" y="0" width="367" height="170" rx="8"></rect>
                    <g id="Group-22" transform="translate(94.000000, 68.000000)">
                        <path d="M66.5926926,20.6065914 C64.0196965,21.168537 60.2642101,21.5231673 57.4843658,21.405035 C56.6859222,21.3753852 56.6266226,21.2869027 56.6266226,20.5475253 L56.6266226,17.8858132 C56.6266226,17.3535175 56.7744047,17.2353852 57.3365837,17.2353852 L62.3637432,17.2353852 C64.6409416,17.2353852 65.3803191,16.2298599 65.3803191,14.0710272 L65.3803191,8.89585214 C65.3803191,6.91445136 64.6705914,6.11600778 62.4821089,6.11600778 L53.551214,6.11600778 C52.5456887,6.11600778 52.013393,7.06223346 52.013393,8.03834241 C52.013393,8.95491829 52.5456887,9.93079377 53.551214,9.93079377 L60.1458444,9.93079377 C60.7965058,9.93079377 60.855572,10.0788093 60.855572,10.5814553 L60.855572,12.976786 C60.855572,13.5387315 60.766856,13.7455798 60.1458444,13.7455798 L55.0297354,13.7455798 C52.9596187,13.7455798 52.1317588,14.514607 52.1317588,16.4960078 L52.1317588,21.7895486 C52.1317588,24.1258132 53.1076342,25.1311051 55.3549494,25.219821 C59.9980623,25.3972529 64.9070895,24.9539066 67.420786,24.1848794 C68.1305136,23.9777977 68.5740934,23.1497043 68.3670117,21.9966304 C68.1895798,20.9318054 67.3911362,20.4291595 66.5926926,20.6065914" id="Fill-1" fill="#FFFFFF"></path>
                        <path d="M72.152358,4.13470039 C70.9103346,4.13470039 69.9344591,4.75571206 69.9344591,5.8203035 L69.9344591,30.1289416 C69.9344591,31.4006148 70.8806848,31.9625603 72.152358,31.9625603 C73.3943813,31.9625603 74.3702568,31.4006148 74.3702568,30.1289416 L74.3702568,5.8203035 C74.3702568,4.75571206 73.3647315,4.13470039 72.152358,4.13470039" id="Fill-3" fill="#FFFFFF"></path>
                        <path d="M92.1571284,20.044716 C89.5843658,20.6066615 85.9173619,20.9909416 83.0193852,20.8728093 C82.250358,20.8431595 82.1912918,20.7544436 82.1912918,20.0152996 L82.1912918,11.0841712 C82.1912918,10.3744436 82.3094241,10.2560778 83.0193852,10.2560778 L89.9688794,10.2560778 C90.9449883,10.2560778 91.4770506,9.42798444 91.4770506,8.363393 C91.4770506,7.32845136 90.9449883,6.44129183 89.9688794,6.44129183 L81.0379844,6.44129183 C78.435572,6.44129183 77.6667782,7.32845136 77.6667782,9.576 L77.6667782,21.4051051 C77.6667782,23.8300856 78.6130039,24.6285292 80.8899689,24.6875953 C85.7992296,24.8356109 90.4418755,24.4510973 92.9558054,23.6230039 C93.6655331,23.3862724 94.1385292,22.5880623 93.9020311,21.4051051 C93.7245992,20.36993 92.9261556,19.867284 92.1571284,20.044716" id="Fill-5" fill="#FFFFFF"></path>
                        <path d="M97.687284,4.13470039 C96.4452607,4.13470039 95.4693852,4.75571206 95.4693852,5.8203035 L95.4693852,30.1289416 C95.4693852,31.4006148 96.4158444,31.9625603 97.687284,31.9625603 C98.9293074,31.9625603 99.9051829,31.4006148 99.9051829,30.1289416 L99.9051829,5.8203035 C99.9051829,4.75571206 98.8996576,4.13470039 97.687284,4.13470039" id="Fill-7" fill="#FFFFFF"></path>
                        <path d="M107.049268,20.0151829 C110.154327,19.4532374 114.087479,17.1762724 115.625066,14.1300467 C117.162887,17.1466226 121.125922,19.3941712 124.230981,19.9855331 C125.620786,20.2516809 126.389813,19.7193852 126.803743,18.6842101 C127.217907,17.6492685 126.862809,16.348179 125.798451,16.1114475 C122.042498,15.2835875 118.02063,12.2670117 118.02063,8.42257588 L118.02063,7.03277043 C118.02063,5.90887938 116.837907,5.31751751 115.59565,5.31751751 C114.353626,5.31751751 113.170903,5.90887938 113.170903,7.03277043 L113.170903,8.45222568 C113.170903,12.2079455 109.681097,15.1948716 105.481798,16.1410973 C104.41744,16.3775953 104.062342,17.6789183 104.476272,18.7138599 C104.890436,19.7488016 105.688879,20.2516809 107.049268,20.0151829" id="Fill-9" fill="#FFFFFF"></path>
                        <path d="M127.099284,24.4510973 L103.973603,24.4510973 C103.057027,24.4510973 102.554148,25.308607 102.554148,26.3435486 C102.554148,27.4083735 103.057027,28.2658833 103.973603,28.2658833 L127.099284,28.2658833 C128.045743,28.2658833 128.518973,27.4083735 128.518973,26.3435486 C128.518973,25.308607 128.045743,24.4510973 127.099284,24.4510973" id="Fill-11" fill="#FFFFFF"></path>
                        <path d="M172.13372,20.6065914 C169.560957,21.168537 165.805471,21.5231673 163.025393,21.405035 C162.226949,21.3753852 162.16765,21.2869027 162.16765,20.5475253 L162.16765,17.8858132 C162.16765,17.3535175 162.315665,17.2353852 162.877611,17.2353852 L167.905004,17.2353852 C170.181969,17.2353852 170.921346,16.2298599 170.921346,14.0710272 L170.921346,8.89585214 C170.921346,6.91445136 170.211852,6.11600778 168.02337,6.11600778 L159.092475,6.11600778 C158.086716,6.11600778 157.55442,7.06223346 157.55442,8.03834241 C157.55442,8.95491829 158.086716,9.93079377 159.092475,9.93079377 L165.687105,9.93079377 C166.337533,9.93079377 166.396599,10.0788093 166.396599,10.5814553 L166.396599,12.976786 C166.396599,13.5387315 166.308117,13.7455798 165.687105,13.7455798 L160.570996,13.7455798 C158.500646,13.7455798 157.672786,14.514607 157.672786,16.4960078 L157.672786,21.7895486 C157.672786,24.1258132 158.648661,25.1311051 160.89621,25.219821 C165.539089,25.3972529 170.448117,24.9539066 172.961813,24.1848794 C173.671774,23.9777977 174.115121,23.1497043 173.908272,21.9966304 C173.73084,20.9318054 172.932397,20.4291595 172.13372,20.6065914" id="Fill-13" fill="#FFFFFF"></path>
                        <path d="M177.693502,4.13470039 C176.451479,4.13470039 175.475603,4.75571206 175.475603,5.8203035 L175.475603,30.1289416 C175.475603,31.4006148 176.422062,31.9625603 177.693502,31.9625603 C178.935525,31.9625603 179.911401,31.4006148 179.911401,30.1289416 L179.911401,5.8203035 C179.911401,4.75571206 178.905875,4.13470039 177.693502,4.13470039" id="Fill-15" fill="#FFFFFF"></path>
                        <path d="M154.636062,24.375642 C154.636062,24.375642 145.718241,24.401323 145.717774,24.401323 C145.649837,24.401323 145.584,24.3742412 145.535907,24.3263813 C145.486879,24.277821 145.459564,24.2119844 145.459097,24.1435798 L145.451393,21.5617121 C149.696685,21.2514397 152.242132,20.6392996 152.385012,20.5954086 C153.389136,20.2863035 153.643844,19.2268482 153.336607,18.2224903 C153.029136,17.2181323 152.272016,16.6501167 151.267891,16.9550195 C151.229837,16.9666926 147.696607,17.8659922 142.403533,17.8659922 C140.942755,17.8659922 139.527735,17.8092607 138.585012,17.728716 C137.681043,17.5393774 137.677774,16.6384436 137.677774,16.0218677 L137.677774,15.4190661 C137.677774,15.2766537 137.793105,15.1610895 137.935518,15.1606226 L150.716918,15.1267704 C151.202288,15.1258366 151.582599,14.9542412 151.847346,14.6164202 C152.104389,14.2886381 152.239564,13.8200778 152.23793,13.2609339 C152.235362,12.0971206 151.664778,11.4021012 150.70758,11.4021012 C150.70758,11.4021012 137.936918,11.4359533 137.936451,11.4359533 C137.868047,11.4359533 137.802444,11.4086381 137.753883,11.3603113 C137.705323,11.311751 137.677774,11.2459144 137.677774,11.1775097 L137.677774,10.2742412 C137.677774,9.35836576 137.926646,9.08918288 138.789292,9.07540856 L151.54758,9.03898833 C152.674272,9.03571984 153.071626,8.01291829 153.068825,7.13859922 C153.065556,5.95400778 152.49544,5.24684825 151.537307,5.24684825 L136.803455,5.24684825 C134.09435,5.24684825 133.224467,6.05136187 133.224467,8.55712062 L133.224467,17.2750973 C133.224467,19.4864591 134.206879,20.7574319 135.685401,21.0931518 C137.163922,21.4291051 138.382599,21.6471595 140.684545,21.6471595 L140.691549,24.1568872 C140.691549,24.2992996 140.576451,24.4153307 140.434272,24.4157977 L131.483767,24.4410117 C130.550848,24.4438132 130.128514,25.4278599 130.131315,26.3407004 C130.13365,27.2287938 130.491315,28.2658366 131.49007,28.2658366 L154.645868,28.2004669 C155.646724,28.1976654 156.001121,27.2003113 155.998319,26.2680934 C155.995984,25.3949416 155.638786,24.375642 154.636062,24.375642" id="Fill-17" fill="#FFFFFF"></path>
                        <g id="Group-21" transform="translate(0.000000, 0.211518)">
                            <mask id="mask-2" fill="white">
                                <use xlink:href="#path-1"></use>
                            </mask>
                            <g id="Clip-20"></g>
                            <path d="M6.07412451,21.6423035 C5.9440856,22.0473619 5.85023346,22.466428 5.79256809,22.9004358 C5.34455253,26.3339767 7.3929572,29.5363891 10.5832296,30.8356109 C11.2264202,31.0935875 11.913035,31.2798911 12.6356031,31.3714086 C15.1429961,31.6921868 17.5275875,30.8482179 19.1823735,29.2784125 C20.4180934,30.9985681 22.3728794,32.2331206 24.699572,32.5326537 C27.5791051,32.9019922 30.2816732,31.7370117 31.9294553,29.6974786 C33.3888327,29.8284514 35.4052529,30.5900078 36.1857198,33.6187237 C36.1857198,33.6187237 40.7452529,27.8106304 37.1501556,22.4360778 C39.2422179,21.3196576 40.766965,19.2999689 41.0847082,16.8413696 C41.2294553,15.7335875 41.1136576,14.6463502 40.7814397,13.6405914 C39.8816732,10.9097743 37.3924903,8.77522179 34.2416732,8.37039689 C34.021284,8.34168093 33.8081323,8.32370428 33.5912451,8.31296498 C33.5480545,4.60136965 30.6433074,1.37234241 26.6905447,0.8652607 C24.5081323,0.587439689 22.4235409,1.18790661 20.8261868,2.38277043 C19.6159144,1.1715642 17.9900778,0.329463035 16.125642,0.0889961089 C15.1504669,-0.0361400778 14.1818288,0.0175564202 13.2822957,0.221836576 C10.2003502,0.91522179 7.75412451,3.37055253 7.33879377,6.55849027 C7.3240856,6.63903502 7.31731518,6.71981323 7.30984436,6.79685603 C5.05178988,6.93133074 3.01015564,7.99218677 1.66610895,9.62852918 C0.813735409,10.6604358 0.242684825,11.9185681 0.0619844358,13.3198132 C-0.443696498,17.1745214 2.20120623,20.7371673 6.07412451,21.6423035" id="Fill-19" fill="#FFFFFF" mask="url(#mask-2)"></path>
                        </g>
                    </g>
                </g>
                <g id="Group-55">
                    <rect id="Rectangle-Copy-3" stroke="#E6E8EB" fill="#FFFFFF" x="0" y="0" width="367" height="170" rx="8"></rect>
                    <g id="Group-22" transform="translate(94.000000, 68.000000)">
                        <path d="M66.5926926,20.6065914 C64.0196965,21.168537 60.2642101,21.5231673 57.4843658,21.405035 C56.6859222,21.3753852 56.6266226,21.2869027 56.6266226,20.5475253 L56.6266226,17.8858132 C56.6266226,17.3535175 56.7744047,17.2353852 57.3365837,17.2353852 L62.3637432,17.2353852 C64.6409416,17.2353852 65.3803191,16.2298599 65.3803191,14.0710272 L65.3803191,8.89585214 C65.3803191,6.91445136 64.6705914,6.11600778 62.4821089,6.11600778 L53.551214,6.11600778 C52.5456887,6.11600778 52.013393,7.06223346 52.013393,8.03834241 C52.013393,8.95491829 52.5456887,9.93079377 53.551214,9.93079377 L60.1458444,9.93079377 C60.7965058,9.93079377 60.855572,10.0788093 60.855572,10.5814553 L60.855572,12.976786 C60.855572,13.5387315 60.766856,13.7455798 60.1458444,13.7455798 L55.0297354,13.7455798 C52.9596187,13.7455798 52.1317588,14.514607 52.1317588,16.4960078 L52.1317588,21.7895486 C52.1317588,24.1258132 53.1076342,25.1311051 55.3549494,25.219821 C59.9980623,25.3972529 64.9070895,24.9539066 67.420786,24.1848794 C68.1305136,23.9777977 68.5740934,23.1497043 68.3670117,21.9966304 C68.1895798,20.9318054 67.3911362,20.4291595 66.5926926,20.6065914" id="Fill-1" fill="#1F8EE6"></path>
                        <path d="M72.152358,4.13470039 C70.9103346,4.13470039 69.9344591,4.75571206 69.9344591,5.8203035 L69.9344591,30.1289416 C69.9344591,31.4006148 70.8806848,31.9625603 72.152358,31.9625603 C73.3943813,31.9625603 74.3702568,31.4006148 74.3702568,30.1289416 L74.3702568,5.8203035 C74.3702568,4.75571206 73.3647315,4.13470039 72.152358,4.13470039" id="Fill-3" fill="#1F8EE6"></path>
                        <path d="M92.1571284,20.044716 C89.5843658,20.6066615 85.9173619,20.9909416 83.0193852,20.8728093 C82.250358,20.8431595 82.1912918,20.7544436 82.1912918,20.0152996 L82.1912918,11.0841712 C82.1912918,10.3744436 82.3094241,10.2560778 83.0193852,10.2560778 L89.9688794,10.2560778 C90.9449883,10.2560778 91.4770506,9.42798444 91.4770506,8.363393 C91.4770506,7.32845136 90.9449883,6.44129183 89.9688794,6.44129183 L81.0379844,6.44129183 C78.435572,6.44129183 77.6667782,7.32845136 77.6667782,9.576 L77.6667782,21.4051051 C77.6667782,23.8300856 78.6130039,24.6285292 80.8899689,24.6875953 C85.7992296,24.8356109 90.4418755,24.4510973 92.9558054,23.6230039 C93.6655331,23.3862724 94.1385292,22.5880623 93.9020311,21.4051051 C93.7245992,20.36993 92.9261556,19.867284 92.1571284,20.044716" id="Fill-5" fill="#1F8EE6"></path>
                        <path d="M97.687284,4.13470039 C96.4452607,4.13470039 95.4693852,4.75571206 95.4693852,5.8203035 L95.4693852,30.1289416 C95.4693852,31.4006148 96.4158444,31.9625603 97.687284,31.9625603 C98.9293074,31.9625603 99.9051829,31.4006148 99.9051829,30.1289416 L99.9051829,5.8203035 C99.9051829,4.75571206 98.8996576,4.13470039 97.687284,4.13470039" id="Fill-7" fill="#1F8EE6"></path>
                        <path d="M107.049268,20.0151829 C110.154327,19.4532374 114.087479,17.1762724 115.625066,14.1300467 C117.162887,17.1466226 121.125922,19.3941712 124.230981,19.9855331 C125.620786,20.2516809 126.389813,19.7193852 126.803743,18.6842101 C127.217907,17.6492685 126.862809,16.348179 125.798451,16.1114475 C122.042498,15.2835875 118.02063,12.2670117 118.02063,8.42257588 L118.02063,7.03277043 C118.02063,5.90887938 116.837907,5.31751751 115.59565,5.31751751 C114.353626,5.31751751 113.170903,5.90887938 113.170903,7.03277043 L113.170903,8.45222568 C113.170903,12.2079455 109.681097,15.1948716 105.481798,16.1410973 C104.41744,16.3775953 104.062342,17.6789183 104.476272,18.7138599 C104.890436,19.7488016 105.688879,20.2516809 107.049268,20.0151829" id="Fill-9" fill="#1F8EE6"></path>
                        <path d="M127.099284,24.4510973 L103.973603,24.4510973 C103.057027,24.4510973 102.554148,25.308607 102.554148,26.3435486 C102.554148,27.4083735 103.057027,28.2658833 103.973603,28.2658833 L127.099284,28.2658833 C128.045743,28.2658833 128.518973,27.4083735 128.518973,26.3435486 C128.518973,25.308607 128.045743,24.4510973 127.099284,24.4510973" id="Fill-11" fill="#1F8EE6"></path>
                        <path d="M172.13372,20.6065914 C169.560957,21.168537 165.805471,21.5231673 163.025393,21.405035 C162.226949,21.3753852 162.16765,21.2869027 162.16765,20.5475253 L162.16765,17.8858132 C162.16765,17.3535175 162.315665,17.2353852 162.877611,17.2353852 L167.905004,17.2353852 C170.181969,17.2353852 170.921346,16.2298599 170.921346,14.0710272 L170.921346,8.89585214 C170.921346,6.91445136 170.211852,6.11600778 168.02337,6.11600778 L159.092475,6.11600778 C158.086716,6.11600778 157.55442,7.06223346 157.55442,8.03834241 C157.55442,8.95491829 158.086716,9.93079377 159.092475,9.93079377 L165.687105,9.93079377 C166.337533,9.93079377 166.396599,10.0788093 166.396599,10.5814553 L166.396599,12.976786 C166.396599,13.5387315 166.308117,13.7455798 165.687105,13.7455798 L160.570996,13.7455798 C158.500646,13.7455798 157.672786,14.514607 157.672786,16.4960078 L157.672786,21.7895486 C157.672786,24.1258132 158.648661,25.1311051 160.89621,25.219821 C165.539089,25.3972529 170.448117,24.9539066 172.961813,24.1848794 C173.671774,23.9777977 174.115121,23.1497043 173.908272,21.9966304 C173.73084,20.9318054 172.932397,20.4291595 172.13372,20.6065914" id="Fill-13" fill="#1F8EE6"></path>
                        <path d="M177.693502,4.13470039 C176.451479,4.13470039 175.475603,4.75571206 175.475603,5.8203035 L175.475603,30.1289416 C175.475603,31.4006148 176.422062,31.9625603 177.693502,31.9625603 C178.935525,31.9625603 179.911401,31.4006148 179.911401,30.1289416 L179.911401,5.8203035 C179.911401,4.75571206 178.905875,4.13470039 177.693502,4.13470039" id="Fill-15" fill="#1F8EE6"></path>
                        <path d="M154.636062,24.375642 C154.636062,24.375642 145.718241,24.401323 145.717774,24.401323 C145.649837,24.401323 145.584,24.3742412 145.535907,24.3263813 C145.486879,24.277821 145.459564,24.2119844 145.459097,24.1435798 L145.451393,21.5617121 C149.696685,21.2514397 152.242132,20.6392996 152.385012,20.5954086 C153.389136,20.2863035 153.643844,19.2268482 153.336607,18.2224903 C153.029136,17.2181323 152.272016,16.6501167 151.267891,16.9550195 C151.229837,16.9666926 147.696607,17.8659922 142.403533,17.8659922 C140.942755,17.8659922 139.527735,17.8092607 138.585012,17.728716 C137.681043,17.5393774 137.677774,16.6384436 137.677774,16.0218677 L137.677774,15.4190661 C137.677774,15.2766537 137.793105,15.1610895 137.935518,15.1606226 L150.716918,15.1267704 C151.202288,15.1258366 151.582599,14.9542412 151.847346,14.6164202 C152.104389,14.2886381 152.239564,13.8200778 152.23793,13.2609339 C152.235362,12.0971206 151.664778,11.4021012 150.70758,11.4021012 C150.70758,11.4021012 137.936918,11.4359533 137.936451,11.4359533 C137.868047,11.4359533 137.802444,11.4086381 137.753883,11.3603113 C137.705323,11.311751 137.677774,11.2459144 137.677774,11.1775097 L137.677774,10.2742412 C137.677774,9.35836576 137.926646,9.08918288 138.789292,9.07540856 L151.54758,9.03898833 C152.674272,9.03571984 153.071626,8.01291829 153.068825,7.13859922 C153.065556,5.95400778 152.49544,5.24684825 151.537307,5.24684825 L136.803455,5.24684825 C134.09435,5.24684825 133.224467,6.05136187 133.224467,8.55712062 L133.224467,17.2750973 C133.224467,19.4864591 134.206879,20.7574319 135.685401,21.0931518 C137.163922,21.4291051 138.382599,21.6471595 140.684545,21.6471595 L140.691549,24.1568872 C140.691549,24.2992996 140.576451,24.4153307 140.434272,24.4157977 L131.483767,24.4410117 C130.550848,24.4438132 130.128514,25.4278599 130.131315,26.3407004 C130.13365,27.2287938 130.491315,28.2658366 131.49007,28.2658366 L154.645868,28.2004669 C155.646724,28.1976654 156.001121,27.2003113 155.998319,26.2680934 C155.995984,25.3949416 155.638786,24.375642 154.636062,24.375642" id="Fill-17" fill="#1F8EE6"></path>
                        <g id="Group-21" transform="translate(0.000000, 0.211518)">
                            <mask id="mask-4" fill="white">
                                <use xlink:href="#path-3"></use>
                            </mask>
                            <g id="Clip-20"></g>
                            <path d="M6.07412451,21.6423035 C5.9440856,22.0473619 5.85023346,22.466428 5.79256809,22.9004358 C5.34455253,26.3339767 7.3929572,29.5363891 10.5832296,30.8356109 C11.2264202,31.0935875 11.913035,31.2798911 12.6356031,31.3714086 C15.1429961,31.6921868 17.5275875,30.8482179 19.1823735,29.2784125 C20.4180934,30.9985681 22.3728794,32.2331206 24.699572,32.5326537 C27.5791051,32.9019922 30.2816732,31.7370117 31.9294553,29.6974786 C33.3888327,29.8284514 35.4052529,30.5900078 36.1857198,33.6187237 C36.1857198,33.6187237 40.7452529,27.8106304 37.1501556,22.4360778 C39.2422179,21.3196576 40.766965,19.2999689 41.0847082,16.8413696 C41.2294553,15.7335875 41.1136576,14.6463502 40.7814397,13.6405914 C39.8816732,10.9097743 37.3924903,8.77522179 34.2416732,8.37039689 C34.021284,8.34168093 33.8081323,8.32370428 33.5912451,8.31296498 C33.5480545,4.60136965 30.6433074,1.37234241 26.6905447,0.8652607 C24.5081323,0.587439689 22.4235409,1.18790661 20.8261868,2.38277043 C19.6159144,1.1715642 17.9900778,0.329463035 16.125642,0.0889961089 C15.1504669,-0.0361400778 14.1818288,0.0175564202 13.2822957,0.221836576 C10.2003502,0.91522179 7.75412451,3.37055253 7.33879377,6.55849027 C7.3240856,6.63903502 7.31731518,6.71981323 7.30984436,6.79685603 C5.05178988,6.93133074 3.01015564,7.99218677 1.66610895,9.62852918 C0.813735409,10.6604358 0.242684825,11.9185681 0.0619844358,13.3198132 C-0.443696498,17.1745214 2.20120623,20.7371673 6.07412451,21.6423035" id="Fill-19" fill="#1F8EE6" mask="url(#mask-4)"></path>
                        </g>
                    </g>
                </g>
            </g>
        </g>
    </g>
</svg>