<?xml version="1.0" encoding="UTF-8"?>
<svg width="765px" height="320px" viewBox="0 0 765 320" version="1.1" xmlns="http://www.w3.org/2000/svg" xmlns:xlink="http://www.w3.org/1999/xlink">
    <!-- Generator: Sketch 53 (72520) - https://sketchapp.com -->
    <title>Group 57</title>
    <desc>Created with Sketch.</desc>
    <defs>
        <polygon id="path-1" points="0 0.00025 100 0.00025 100 150 0 150"></polygon>
        <polygon id="path-3" points="0 0.00025 100 0.00025 100 150 0 150"></polygon>
        <polygon id="path-5" points="0 0.00025 100 0.00025 100 150 0 150"></polygon>
        <polygon id="path-7" points="0 0.00025 100 0.00025 100 150 0 150"></polygon>
        <polygon id="path-9" points="0 0.00025 100 0.00025 100 150 0 150"></polygon>
        <polygon id="path-11" points="0 0.00025 100 0.00025 100 150 0 150"></polygon>
        <polygon id="path-13" points="0 0.00025 100 0.00025 100 150 0 150"></polygon>
        <polygon id="path-15" points="0 0.00025 100 0.00025 100 150 0 150"></polygon>
    </defs>
    <g id="Page-1" stroke="none" stroke-width="1" fill="none" fill-rule="evenodd">
        <g id="RIDI-Story" transform="translate(-338.000000, -4131.000000)">
            <g id="Group-57" transform="translate(338.000000, 4131.000000)">
                <g id="Group-24" transform="translate(665.000000, 0.000000)">
                    <g id="Group-3">
                        <mask id="mask-2" fill="white">
                            <use xlink:href="#path-1"></use>
                        </mask>
                        <g id="Clip-2"></g>
                        <path d="M50,150.00025 L50,150.00025 C22.385,150.00025 0,127.614 0,100.00025 L0,50.00025 C0,22.38525 22.385,0.00025 50,0.00025 C77.615,0.00025 100,22.38525 100,50.00025 L100,100.00025 C100,127.614 77.615,150.00025 50,150.00025" id="Fill-1" fill="#847570" mask="url(#mask-2)"></path>
                    </g>
                    <path d="M77.879625,121.613375 C77.879625,124.388375 65.477125,126.638375 50.179625,126.638375 C34.880875,126.638375 22.479625,124.388375 22.479625,121.613375 C22.479625,118.838375 34.880875,116.588375 50.179625,116.588375 C65.477125,116.588375 77.879625,118.838375 77.879625,121.613375" id="Fill-4" fill="#6D5E5A"></path>
                    <path d="M74.0515,119.0255 L74.0515,119.0255 C72.444,119.80675 70.489,119.12925 69.70775,117.52175 L47.14025,71.0455 C46.36025,69.438 47.0365,67.48425 48.644,66.703 C50.25275,65.92175 52.2065,66.598 52.9865,68.20675 L75.55525,114.68175 C76.3365,116.2905 75.659,118.24425 74.0515,119.0255" id="Fill-6" fill="#000000"></path>
                    <path d="M48.851375,114.79275 C48.851375,121.329 48.433875,122.934 43.512625,122.934 C38.863875,122.934 38.200125,120.324 37.145125,114.659 L32.422625,82.31775 C31.478875,75.57775 32.125125,64.55775 40.121375,63.374 C48.121375,62.189 48.851375,72.869 48.851375,79.4065 L48.851375,114.79275 Z" id="Fill-8" fill="#000000"></path>
                    <path d="M50.877625,114.79275 C50.877625,121.329 51.295125,122.934 56.216375,122.934 C60.865125,122.934 61.528875,120.324 62.583875,114.659 L67.306375,82.31775 C68.250125,75.57775 67.603875,64.55775 59.607625,63.374 C51.607625,62.189 50.877625,72.869 50.877625,79.4065 L50.877625,114.79275 Z" id="Fill-10" fill="#000000"></path>
                    <path d="M67.63675,75.417125 C67.63675,85.233375 59.6805,93.189625 49.86425,93.189625 C40.04925,93.189625 32.09175,85.233375 32.09175,75.417125 C32.09175,65.600875 40.04925,57.644625 49.86425,57.644625 C59.6805,57.644625 67.63675,65.600875 67.63675,75.417125" id="Fill-12" fill="#000000"></path>
                    <path d="M42.66475,53.33025 L57.06475,53.33025 C63.13225,53.33025 68.096,48.3665 68.096,42.299 L68.096,29.599 C68.096,27.53775 66.40975,25.85275 64.34975,25.85275 L35.37975,25.85275 C33.3185,25.85275 31.6335,27.53775 31.6335,29.599 L31.6335,42.299 C31.6335,48.3665 36.59725,53.33025 42.66475,53.33025" id="Fill-14" fill="#000000"></path>
                    <path d="M64.34575,79.814625 C64.34575,89.883375 49.8645,89.295875 49.8645,89.295875 C49.8645,89.295875 35.38325,89.883375 35.38325,79.814625 L31.63325,42.834625 C31.63325,32.765875 39.79575,24.603375 49.8645,24.603375 C59.93325,24.603375 68.09575,32.765875 68.09575,42.834625 L64.34575,79.814625 Z" id="Fill-16" fill="#000000"></path>
                    <path d="M45.537125,39.369125 C45.865875,39.481625 46.005875,39.879125 45.818375,40.170375 C45.139625,41.224125 43.804625,41.719125 42.567125,41.291625 C41.332125,40.864125 40.588375,39.655375 40.700875,38.409125 C40.732125,38.060375 41.092125,37.832875 41.423375,37.947875 L45.537125,39.369125 Z" id="Fill-18" fill="#EAD86E"></path>
                    <path d="M54.191875,39.369125 C53.863125,39.481625 53.723125,39.879125 53.910625,40.170375 C54.589375,41.224125 55.924375,41.719125 57.161875,41.291625 C58.396875,40.864125 59.140625,39.655375 59.028125,38.409125 C58.996875,38.060375 58.636875,37.832875 58.305625,37.947875 L54.191875,39.369125 Z" id="Fill-20" fill="#EAD86E"></path>
                    <path d="M50.798375,49.286125 L48.930875,49.286125 C48.219625,49.286125 47.637125,48.703625 47.637125,47.992375 C47.637125,47.281125 48.219625,46.698625 48.930875,46.698625 L50.798375,46.698625 C51.509625,46.698625 52.092125,47.281125 52.092125,47.992375 C52.092125,48.703625 51.509625,49.286125 50.798375,49.286125" id="Fill-22" fill="#491E26"></path>
                </g>
                <g id="Group-28" transform="translate(532.000000, 0.000000)">
                    <g id="Group-3">
                        <mask id="mask-4" fill="white">
                            <use xlink:href="#path-3"></use>
                        </mask>
                        <g id="Clip-2"></g>
                        <path d="M50,150.00025 L50,150.00025 C22.385,150.00025 0,127.614 0,100.00025 L0,50.00025 C0,22.38525 22.385,0.00025 50,0.00025 C77.615,0.00025 100,22.38525 100,50.00025 L100,100.00025 C100,127.614 77.615,150.00025 50,150.00025" id="Fill-1" fill="#5E7272" mask="url(#mask-4)"></path>
                    </g>
                    <path d="M82.619625,114.48075 C82.619625,117.71575 68.219625,120.3395 50.459625,120.3395 C32.698375,120.3395 18.300875,117.71575 18.300875,114.48075 C18.300875,111.2445 32.698375,108.622 50.459625,108.622 C68.219625,108.622 82.619625,111.2445 82.619625,114.48075" id="Fill-4" fill="#475959"></path>
                    <path d="M68.33125,88.64525 C60.68625,80.999 51.4475,77.8415 47.69625,81.59275 C43.945,85.344 47.1025,94.58275 54.7475,102.229 C62.39375,109.87525 71.6325,113.03275 75.38375,109.2815 C79.135,105.53025 75.9775,96.2915 68.33125,88.64525" id="Fill-6" fill="#FCE9B4"></path>
                    <path d="M38.337375,37.181625 C47.188625,42.292875 52.332375,49.956625 49.824875,54.299125 C47.318625,58.641625 38.108625,58.019125 29.256125,52.909125 C20.403625,47.797875 15.261125,40.134125 17.768625,35.791625 C20.276125,31.449125 29.484875,32.071625 38.337375,37.181625" id="Fill-8" fill="#FCF7D4"></path>
                    <path d="M62.583,37.181625 C53.7305,42.292875 48.588,49.956625 51.0955,54.299125 C53.60175,58.641625 62.81175,58.019125 71.663,52.909125 C80.5155,47.797875 85.658,40.134125 83.1505,35.791625 C80.643,31.449125 71.43425,32.071625 62.583,37.181625" id="Fill-10" fill="#FCF7D4"></path>
                    <path d="M68.429,57.0315 C68.429,66.95525 57.66025,75.00025 50.46025,75.00025 C43.26275,75.00025 32.4915,66.95525 32.4915,57.0315 C32.4915,47.10775 40.5365,39.06275 50.46025,39.06275 C60.38275,39.06275 68.429,47.10775 68.429,57.0315" id="Fill-12" fill="#FCF7D4"></path>
                    <path d="M49.176,109.046875 C49.40975,112.026875 48.45225,114.229375 45.47225,114.461875 C42.49225,114.695625 41.21475,112.704375 40.606,109.719375 L37.201,93.860625 C36.96725,90.880625 39.19475,88.275625 42.1735,88.043125 C45.1535,87.809375 47.7585,90.035625 47.99225,93.015625 L49.176,109.046875 Z" id="Fill-14" fill="#FCF7D4"></path>
                    <path d="M51.743125,109.046875 C51.509375,112.026875 52.468125,114.229375 55.448125,114.461875 C58.428125,114.695625 59.705625,112.704375 60.314375,109.719375 L63.718125,93.860625 C63.951875,90.880625 61.724375,88.275625 58.745625,88.043125 C55.765625,87.809375 53.160625,90.035625 52.926875,93.015625 L51.743125,109.046875 Z" id="Fill-16" fill="#FCF7D4"></path>
                    <path d="M65.379625,86.67925 C65.379625,94.91925 58.699625,101.59925 50.459625,101.59925 C42.219625,101.59925 35.539625,94.91925 35.539625,86.67925 C35.539625,78.43925 42.219625,71.75925 50.459625,71.75925 C58.699625,71.75925 65.379625,78.43925 65.379625,86.67925" id="Fill-18" fill="#FCF7D4"></path>
                    <path d="M46.025375,56.032375 C46.025375,57.421125 44.900375,58.546125 43.511625,58.546125 C42.122875,58.546125 40.997875,57.421125 40.997875,56.032375 C40.997875,54.644875 42.122875,53.518625 43.511625,53.518625 C44.900375,53.518625 46.025375,54.644875 46.025375,56.032375" id="Fill-20" fill="#000000"></path>
                    <path d="M52.937,55.787 C53.70825,55.787 54.29575,56.727 53.997,57.587 C53.4145,59.262 52.04325,60.43825 50.44575,60.43825 C48.90075,60.43825 47.56825,59.3395 46.9545,57.7545 C46.602,56.84075 47.1295,55.787 47.96325,55.787 L52.937,55.787 Z" id="Fill-22" fill="#FCE9B4"></path>
                    <path d="M59.921875,56.032375 C59.921875,57.421125 58.796875,58.546125 57.406875,58.546125 C56.019375,58.546125 54.894375,57.421125 54.894375,56.032375 C54.894375,54.644875 56.019375,53.518625 57.406875,53.518625 C58.796875,53.518625 59.921875,54.644875 59.921875,56.032375" id="Fill-24" fill="#000000"></path>
                    <path d="M50.46025,58.113 L50.46025,58.113 C49.749,58.113 49.1665,57.5305 49.1665,56.81925 C49.1665,56.10675 49.749,55.52425 50.46025,55.52425 C51.1715,55.52425 51.754,56.10675 51.754,56.81925 C51.754,57.5305 51.1715,58.113 50.46025,58.113" id="Fill-26" fill="#000000"></path>
                </g>
                <g id="Group-24" transform="translate(399.000000, 0.000000)">
                    <g id="Group-3">
                        <mask id="mask-6" fill="white">
                            <use xlink:href="#path-5"></use>
                        </mask>
                        <g id="Clip-2"></g>
                        <path d="M50,150.00025 L50,150.00025 C22.38625,150.00025 0,127.614 0,100.00025 L0,50.00025 C0,22.38525 22.38625,0.00025 50,0.00025 C77.615,0.00025 100,22.38525 100,50.00025 L100,100.00025 C100,127.614 77.615,150.00025 50,150.00025" id="Fill-1" fill="#EDE4E8" mask="url(#mask-6)"></path>
                    </g>
                    <path d="M61.538125,101.684125 C61.538125,103.829125 56.371875,105.566625 50.000625,105.566625 C43.628125,105.566625 38.463125,103.829125 38.463125,101.684125 C38.463125,99.539125 43.628125,97.801625 50.000625,97.801625 C56.371875,97.801625 61.538125,99.539125 61.538125,101.684125" id="Fill-4" fill="#E0D1DA"></path>
                    <path d="M46.38425,89.287875 L53.6155,89.287875 C55.973,89.287875 57.90175,91.215375 57.90175,93.572875 L57.90175,94.706625 C57.90175,99.052875 54.3455,101.626625 50.0005,101.626625 C45.65425,101.626625 42.09925,99.052875 42.09925,94.706625 L42.09925,93.572875 C42.09925,91.215375 44.02675,89.287875 46.38425,89.287875" id="Fill-6" fill="#C6D137"></path>
                    <path d="M54.527625,94.65475 L45.471375,94.65475 C42.520125,94.65475 40.105125,92.23975 40.105125,89.2885 C40.105125,86.336 42.520125,83.921 45.471375,83.921 L54.527625,83.921 C57.480125,83.921 59.895125,86.336 59.895125,89.2885 C59.895125,92.23975 57.480125,94.65475 54.527625,94.65475" id="Fill-8" fill="#C6D137"></path>
                    <path d="M54.527625,85.262625 L45.471375,85.262625 C42.520125,85.262625 40.105125,82.847625 40.105125,79.896375 C40.105125,76.943875 42.520125,74.528875 45.471375,74.528875 L54.527625,74.528875 C57.480125,74.528875 59.895125,76.943875 59.895125,79.896375 C59.895125,82.847625 57.480125,85.262625 54.527625,85.262625" id="Fill-10" fill="#C6D137"></path>
                    <path d="M54.527625,75.870625 L45.471375,75.870625 C42.520125,75.870625 40.105125,73.455625 40.105125,70.504375 C40.105125,67.553125 42.520125,65.138125 45.471375,65.138125 L54.527625,65.138125 C57.480125,65.138125 59.895125,67.553125 59.895125,70.504375 C59.895125,73.455625 57.480125,75.870625 54.527625,75.870625" id="Fill-12" fill="#C6D137"></path>
                    <path d="M46.867625,45.81925 L46.867625,45.81925 C45.963875,45.81925 45.223875,46.558 45.223875,47.46175 L45.223875,49.51925 C45.223875,50.42425 45.963875,51.163 46.867625,51.163 C47.771375,51.163 48.510125,50.42425 48.510125,49.51925 L48.510125,47.46175 C48.510125,46.558 47.771375,45.81925 46.867625,45.81925" id="Fill-14" fill="#C6D137"></path>
                    <path d="M53.23725,45.81925 L53.23725,45.81925 C52.33225,45.81925 51.5935,46.558 51.5935,47.46175 L51.5935,49.51925 C51.5935,50.42425 52.33225,51.163 53.23725,51.163 C54.141,51.163 54.87975,50.42425 54.87975,49.51925 L54.87975,47.46175 C54.87975,46.558 54.141,45.81925 53.23725,45.81925" id="Fill-16" fill="#C6D137"></path>
                    <path d="M54.527625,66.479125 L45.471375,66.479125 C42.520125,66.479125 40.105125,64.064125 40.105125,61.112875 L40.105125,58.079125 C40.105125,52.636625 44.557625,48.184125 50.000125,48.184125 C55.441375,48.184125 59.895125,52.636625 59.895125,58.079125 L59.895125,61.112875 C59.895125,64.064125 57.480125,66.479125 54.527625,66.479125" id="Fill-18" fill="#C6D137"></path>
                    <path d="M48.458875,57.934125 C48.458875,58.841625 47.722625,59.577875 46.815125,59.577875 C45.907625,59.577875 45.172625,58.841625 45.172625,57.934125 C45.172625,57.026625 45.907625,56.291625 46.815125,56.291625 C47.722625,56.291625 48.458875,57.026625 48.458875,57.934125" id="Fill-20" fill="#000000"></path>
                    <path d="M54.827875,57.934125 C54.827875,58.841625 54.091625,59.577875 53.185375,59.577875 C52.276625,59.577875 51.541625,58.841625 51.541625,57.934125 C51.541625,57.026625 52.276625,56.291625 53.185375,56.291625 C54.091625,56.291625 54.827875,57.026625 54.827875,57.934125" id="Fill-22" fill="#000000"></path>
                </g>
                <g id="Group-18" transform="translate(266.000000, 0.000000)">
                    <g id="Group-3">
                        <mask id="mask-8" fill="white">
                            <use xlink:href="#path-7"></use>
                        </mask>
                        <g id="Clip-2"></g>
                        <path d="M50,150.00025 L50,150.00025 C22.38625,150.00025 0,127.614 0,100.00025 L0,50.00025 C0,22.38525 22.38625,0.00025 50,0.00025 C77.61375,0.00025 100,22.38525 100,50.00025 L100,100.00025 C100,127.614 77.61375,150.00025 50,150.00025" id="Fill-1" fill="#F7EEDA" mask="url(#mask-8)"></path>
                    </g>
                    <path d="M70.79525,104.184125 C70.79525,106.329125 61.61525,108.066625 50.29025,108.066625 C38.96525,108.066625 29.784,106.329125 29.784,104.184125 C29.784,102.039125 38.96525,100.301625 50.29025,100.301625 C61.61525,100.301625 70.79525,102.039125 70.79525,104.184125" id="Fill-4" fill="#E8D8B8"></path>
                    <path d="M70.79525,83.551875 C70.79525,94.876875 61.61525,104.056875 50.29025,104.056875 C38.96525,104.056875 29.784,94.876875 29.784,83.551875 L29.784,61.813125 C29.784,50.488125 38.96525,41.308125 50.29025,41.308125 C61.61525,41.308125 70.79525,50.488125 70.79525,61.813125 L70.79525,83.551875 Z" id="Fill-6" fill="#363F51"></path>
                    <path d="M64.497625,89.8495 C64.497625,97.69575 58.137625,104.057 50.290125,104.057 C42.442625,104.057 36.082625,97.69575 36.082625,89.8495 L36.082625,62.59575 C36.082625,54.7495 42.442625,48.38825 50.290125,48.38825 C58.137625,48.38825 64.497625,54.7495 64.497625,62.59575 L64.497625,89.8495 Z" id="Fill-8" fill="#FFFFFF"></path>
                    <path d="M46.345875,63.56525 C46.345875,64.564 45.535875,65.37275 44.537125,65.37275 C43.539625,65.37275 42.729625,64.564 42.729625,63.56525 C42.729625,62.5665 43.539625,61.75775 44.537125,61.75775 C45.535875,61.75775 46.345875,62.5665 46.345875,63.56525" id="Fill-10" fill="#000000"></path>
                    <path d="M57.850375,63.56525 C57.850375,64.564 57.041625,65.37275 56.042875,65.37275 C55.044125,65.37275 54.234125,64.564 54.234125,63.56525 C54.234125,62.5665 55.044125,61.75775 56.042875,61.75775 C57.041625,61.75775 57.850375,62.5665 57.850375,63.56525" id="Fill-12" fill="#000000"></path>
                    <path d="M51.31225,67.5625 L49.25725,67.5625 C48.4735,67.5625 47.8335,66.92125 47.8335,66.13875 C47.8335,65.35625 48.4735,64.715 49.25725,64.715 L51.31225,64.715 C52.09475,64.715 52.736,65.35625 52.736,66.13875 C52.736,66.92125 52.09475,67.5625 51.31225,67.5625" id="Fill-14" fill="#FFB229"></path>
                    <path d="M61.668125,100.31825 L38.911875,100.31825 C37.930625,100.31825 37.126875,101.32325 37.126875,102.3045 C37.126875,103.277 43.020625,104.16575 50.289375,104.16575 C57.559375,104.16575 63.453125,103.227 63.453125,102.2545 C63.453125,101.27325 62.650625,100.31825 61.668125,100.31825" id="Fill-16" fill="#FFB229"></path>
                </g>
                <g id="Group-26" transform="translate(133.000000, 0.000000)">
                    <g id="Group-3">
                        <mask id="mask-10" fill="white">
                            <use xlink:href="#path-9"></use>
                        </mask>
                        <g id="Clip-2"></g>
                        <path d="M50,150.00025 L50,150.00025 C22.38625,150.00025 0,127.614 0,100.00025 L0,50.00025 C0,22.38525 22.38625,0.00025 50,0.00025 C77.61375,0.00025 100,22.38525 100,50.00025 L100,100.00025 C100,127.614 77.61375,150.00025 50,150.00025" id="Fill-1" fill="#797E93" mask="url(#mask-10)"></path>
                    </g>
                    <path d="M77.70025,126.684125 C77.70025,128.829125 65.299,130.566625 50.00025,130.566625 C34.7015,130.566625 22.30025,128.829125 22.30025,126.684125 C22.30025,124.539125 34.7015,122.801625 50.00025,122.801625 C65.299,122.801625 77.70025,124.539125 77.70025,126.684125" id="Fill-4" fill="#5B6584"></path>
                    <path d="M47.608625,118.789875 C47.608625,123.208625 44.026125,126.791125 39.607375,126.791125 C35.187375,126.791125 31.606125,123.208625 31.606125,118.789875 L29.106125,101.648625 C29.106125,97.228625 35.187375,93.646125 39.607375,93.646125 C44.026125,93.646125 47.608625,97.228625 47.608625,101.648625 L47.608625,118.789875 Z" id="Fill-6" fill="#E1E1EA"></path>
                    <path d="M52.064875,118.789875 C52.064875,123.208625 55.647375,126.791125 60.066125,126.791125 C64.486125,126.791125 68.068625,123.208625 68.068625,118.789875 L70.568625,101.648625 C70.568625,97.228625 64.486125,93.646125 60.066125,93.646125 C55.647375,93.646125 52.064875,97.228625 52.064875,101.648625 L52.064875,118.789875 Z" id="Fill-8" fill="#E1E1EA"></path>
                    <path d="M61.719375,73.75025 C70.545625,73.75025 77.700625,80.90525 77.700625,89.7315 C77.700625,98.55775 70.545625,105.71275 61.719375,105.71275 L37.954375,105.71275 C29.128125,105.71275 21.973125,98.55775 21.973125,89.7315 C21.973125,80.90525 29.128125,73.75025 37.954375,73.75025 L61.719375,73.75025 Z" id="Fill-10" fill="#E1E1EA"></path>
                    <path d="M68.06825,81.499875 C68.06825,91.568625 59.90575,99.731125 49.837,99.731125 C39.76825,99.731125 31.60575,91.568625 31.60575,81.499875 L31.60575,38.139875 C31.60575,28.071125 39.76825,19.908625 49.837,19.908625 C59.90575,19.908625 68.06825,28.071125 68.06825,38.139875 L68.06825,81.499875 Z" id="Fill-12" fill="#E1E1EA"></path>
                    <path d="M36.084625,26.148875 C37.393375,24.840125 39.708375,25.165125 40.408375,26.877625 C41.770875,30.215125 41.098375,34.188875 38.388375,36.898875 C35.770875,39.516375 31.970875,40.233875 28.705875,39.047625 C26.824625,38.365125 26.240875,35.992625 27.654625,34.578875 L36.084625,26.148875 Z" id="Fill-14" fill="#E1E1EA"></path>
                    <path d="M63.59625,26.148875 C62.28875,24.840125 59.9725,25.165125 59.27375,26.877625 C57.91,30.215125 58.5825,34.188875 61.2925,36.898875 C63.91,39.516375 67.71,40.233875 70.975,39.047625 C72.85625,38.365125 73.44,35.992625 72.02625,34.578875 L63.59625,26.148875 Z" id="Fill-16" fill="#E1E1EA"></path>
                    <path d="M61.13825,39.931875 L61.13825,44.408125 C61.13825,50.623125 56.052,55.709375 49.837,55.709375 C43.62075,55.709375 38.53575,50.623125 38.53575,44.408125 L38.53575,39.931875 C38.53575,33.716875 43.62075,28.630625 49.837,28.630625 C56.052,28.630625 61.13825,33.716875 61.13825,39.931875" id="Fill-18" fill="#FFFFFF"></path>
                    <path d="M45.8875,41.368625 C46.35875,41.368625 46.7175,41.843625 46.535,42.278625 C46.17875,43.126125 45.34125,43.719875 44.36625,43.719875 C43.4225,43.719875 42.60875,43.164875 42.23375,42.362375 C42.01875,41.901125 42.34,41.368625 42.85,41.368625 L45.8875,41.368625 Z" id="Fill-20" fill="#000000"></path>
                    <path d="M56.746875,41.368625 C57.218125,41.368625 57.576875,41.843625 57.394375,42.278625 C57.038125,43.126125 56.200625,43.719875 55.225625,43.719875 C54.281875,43.719875 53.468125,43.164875 53.094375,42.362375 C52.878125,41.901125 53.199375,41.368625 53.709375,41.368625 L56.746875,41.368625 Z" id="Fill-22" fill="#000000"></path>
                    <path d="M50.770875,47.58325 L48.902125,47.58325 C48.190875,47.58325 47.608375,47.00075 47.608375,46.2895 C47.608375,45.57825 48.190875,44.99575 48.902125,44.99575 L50.770875,44.99575 C51.482125,44.99575 52.064625,45.57825 52.064625,46.2895 C52.064625,47.00075 51.482125,47.58325 50.770875,47.58325" id="Fill-24" fill="#000000"></path>
                </g>
                <g id="Group-34">
                    <g id="Group-3">
                        <mask id="mask-12" fill="white">
                            <use xlink:href="#path-11"></use>
                        </mask>
                        <g id="Clip-2"></g>
                        <path d="M50,150.00025 L50,150.00025 C22.38625,150.00025 0,127.614 0,100.00025 L0,50.00025 C0,22.38525 22.38625,0.00025 50,0.00025 C77.61375,0.00025 100,22.38525 100,50.00025 L100,100.00025 C100,127.614 77.61375,150.00025 50,150.00025" id="Fill-1" fill="#E1EAEA" mask="url(#mask-12)"></path>
                    </g>
                    <path d="M74.596,129.184125 C74.596,131.329125 63.78975,133.066625 50.45975,133.066625 C37.12975,133.066625 26.3235,131.329125 26.3235,129.184125 C26.3235,127.039125 37.12975,125.301625 50.45975,125.301625 C63.78975,125.301625 74.596,127.039125 74.596,129.184125" id="Fill-4" fill="#C2D3D2"></path>
                    <path d="M51.79875,121.31975 C51.79875,125.6635 53.7025,129.18475 58.04625,129.18475 C62.38875,129.18475 64.2925,125.6635 64.2925,121.31975 L67.42375,90.85475 C67.42375,86.51225 63.9025,82.991 59.55875,82.991 C55.215,82.991 51.695,86.51225 51.695,90.85475 L51.79875,121.31975 Z" id="Fill-6" fill="#F4B295"></path>
                    <path d="M49.1205,121.31975 C49.1205,125.6635 47.21675,129.18475 42.873,129.18475 C38.5305,129.18475 36.62675,125.6635 36.62675,121.31975 L33.4955,90.85475 C33.4955,86.51225 37.01675,82.991 41.3605,82.991 C45.70425,82.991 49.22425,86.51225 49.22425,90.85475 L49.1205,121.31975 Z" id="Fill-8" fill="#F4B295"></path>
                    <path d="M57.631875,64.06825 L43.286875,64.06825 C43.286875,64.06825 33.495625,84.072 33.495625,90.83075 C33.495625,100.1995 41.091875,107.73575 50.459375,107.73575 C59.828125,107.73575 67.423125,100.22825 67.423125,90.8595 C67.423125,84.10075 57.631875,64.06825 57.631875,64.06825" id="Fill-10" fill="#F4B295"></path>
                    <path d="M47.018375,31.43875 L47.018375,31.43875 C46.168375,31.92125 45.077125,31.62125 44.594625,30.77125 L42.504625,27.09125 C42.020875,26.24125 42.322125,25.15125 43.172125,24.6675 C44.022125,24.185 45.113375,24.48625 45.595875,25.33625 L47.685875,29.01625 C48.168375,29.86625 47.868375,30.95625 47.018375,31.43875" id="Fill-12" fill="#E7916B"></path>
                    <path d="M41.151125,32.535 C42.973625,31.49125 45.416125,32.535 45.672375,34.62 C46.172375,38.68375 44.251125,42.84 40.476125,45.0025 C36.827375,47.0925 32.449875,46.74625 29.223625,44.47625 C27.366125,43.1675 27.429875,40.39375 29.402375,39.26375 L41.151125,32.535 Z" id="Fill-14" fill="#F4B295"></path>
                    <path d="M59.768125,32.535 C57.945625,31.49125 55.503125,32.535 55.246875,34.62 C54.746875,38.68375 56.668125,42.84 60.443125,45.0025 C64.091875,47.0925 68.470625,46.74625 71.695625,44.47625 C73.554375,43.1675 73.489375,40.39375 71.516875,39.26375 L59.768125,32.535 Z" id="Fill-16" fill="#F4B295"></path>
                    <path d="M44.73025,35.003875 L44.73025,35.003875 C43.78775,34.743875 43.229,33.760125 43.489,32.817625 L45.7365,24.657625 C45.9965,23.715125 46.98025,23.156375 47.92275,23.416375 C48.86525,23.675125 49.42275,24.660125 49.164,25.602625 L46.9165,33.762625 C46.6565,34.705125 45.67275,35.263875 44.73025,35.003875" id="Fill-18" fill="#E7916B"></path>
                    <path d="M53.908125,31.43875 L53.908125,31.43875 C54.758125,31.92125 55.848125,31.62125 56.330625,30.77125 L58.421875,27.09125 C58.904375,26.24125 58.604375,25.15125 57.754375,24.6675 C56.904375,24.185 55.813125,24.48625 55.330625,25.33625 L53.240625,29.01625 C52.758125,29.86625 53.058125,30.95625 53.908125,31.43875" id="Fill-20" fill="#E7916B"></path>
                    <path d="M56.19625,35.003875 L56.19625,35.003875 C57.13875,34.743875 57.6975,33.760125 57.4375,32.817625 L55.19,24.657625 C54.93,23.715125 53.94625,23.156375 53.00375,23.416375 C52.06125,23.675125 51.5025,24.660125 51.7625,25.602625 L54.01,33.762625 C54.27,34.705125 55.25375,35.263875 56.19625,35.003875" id="Fill-22" fill="#E7916B"></path>
                    <path d="M67.551875,48.1795 C67.551875,58.3045 57.659375,66.51325 50.459375,66.51325 C43.263125,66.51325 33.359375,58.3045 33.359375,48.1795 C33.359375,38.0545 40.334375,29.84575 50.459375,29.84575 C60.585625,29.84575 67.551875,38.0545 67.551875,48.1795" id="Fill-24" fill="#F4B295"></path>
                    <path d="M55.169125,50.953 C55.169125,53.55425 53.060375,55.663 50.459125,55.663 C47.859125,55.663 45.750375,53.55425 45.750375,50.953 C45.750375,48.35175 47.859125,46.24425 50.459125,46.24425 C53.060375,46.24425 55.169125,48.35175 55.169125,50.953" id="Fill-26" fill="#FCCBBE"></path>
                    <path d="M45.5255,47.723625 C45.5255,48.973625 44.51175,49.986125 43.263,49.986125 C42.013,49.986125 41.0005,48.973625 41.0005,47.723625 C41.0005,46.473625 42.013,45.461125 43.263,45.461125 C44.51175,45.461125 45.5255,46.473625 45.5255,47.723625" id="Fill-28" fill="#000000"></path>
                    <path d="M59.9225,47.723625 C59.9225,48.973625 58.90875,49.986125 57.66,49.986125 C56.41,49.986125 55.3975,48.973625 55.3975,47.723625 C55.3975,46.473625 56.41,45.461125 57.66,45.461125 C58.90875,45.461125 59.9225,46.473625 59.9225,47.723625" id="Fill-30" fill="#000000"></path>
                    <path d="M51.394,50.3115 L49.52525,50.3115 C48.814,50.3115 48.2315,49.729 48.2315,49.01775 C48.2315,48.3065 48.814,47.724 49.52525,47.724 L51.394,47.724 C52.10525,47.724 52.68775,48.3065 52.68775,49.01775 C52.68775,49.729 52.10525,50.3115 51.394,50.3115" id="Fill-32" fill="#000000"></path>
                </g>
                <g id="Group-24" transform="translate(0.000000, 170.000000)">
                    <g id="Group-3">
                        <mask id="mask-14" fill="white">
                            <use xlink:href="#path-13"></use>
                        </mask>
                        <g id="Clip-2"></g>
                        <path d="M50,150.00025 L50,150.00025 C22.385,150.00025 0,127.614 0,100.00025 L0,50.00025 C0,22.38525 22.385,0.00025 50,0.00025 C77.615,0.00025 100,22.38525 100,50.00025 L100,100.00025 C100,127.614 77.615,150.00025 50,150.00025" id="Fill-1" fill="#FFFFFF" mask="url(#mask-14)"></path>
                    </g>
                    <path d="M78.059125,117.56975 C78.059125,120.42975 65.656625,122.7485 50.359125,122.7485 C35.060375,122.7485 22.659125,120.42975 22.659125,117.56975 C22.659125,114.70975 35.060375,112.391 50.359125,112.391 C65.656625,112.391 78.059125,114.70975 78.059125,117.56975" id="Fill-4" fill="#E8DCDA"></path>
                    <path d="M69.5325,88.518875 C69.5325,99.198875 60.875,107.856375 50.195,107.856375 C39.515,107.856375 30.85875,99.198875 30.85875,88.518875 L30.85875,47.527625 C30.85875,36.847625 39.515,28.190125 50.195,28.190125 C60.875,28.190125 69.5325,36.847625 69.5325,47.527625 L69.5325,88.518875 Z" id="Fill-6" fill="#DBD5D6"></path>
                    <path d="M69.458,70.31825 L49.84425,83.99075 L30.933,70.31825 C30.908,70.31825 27.418,102.39325 27.418,104.8195 C27.418,112.0345 33.26675,117.81825 40.48175,117.81825 L59.908,117.81825 C67.12425,117.81825 72.973,112.05325 72.973,104.83825 C72.973,102.412 69.483,70.31825 69.458,70.31825" id="Fill-8" fill="#CCC8C9"></path>
                    <path d="M48.35325,32.744375 L52.2095,32.744375 C57.472,32.744375 61.777,37.049375 61.777,42.311875 C61.777,47.574375 57.472,51.880625 52.2095,51.880625 L48.35325,51.880625 C43.09075,51.880625 38.78575,47.574375 38.78575,42.311875 C38.78575,37.049375 43.09075,32.744375 48.35325,32.744375" id="Fill-10" fill="#F7F5F5"></path>
                    <path d="M43.985625,43.651375 C43.606875,44.030125 42.935625,43.936375 42.733125,43.440125 C42.339375,42.473875 42.533125,41.321375 43.318125,40.536375 C44.076875,39.777625 45.178125,39.570125 46.124375,39.913875 C46.668125,40.111375 46.838125,40.798875 46.428125,41.208875 L43.985625,43.651375 Z" id="Fill-12" fill="#000000"></path>
                    <path d="M54.027125,41.2185 C53.648375,40.83975 53.742125,40.1685 54.238375,39.966 C55.204625,39.571 56.357125,39.766 57.142125,40.551 C57.900875,41.30975 58.108375,42.411 57.764625,43.356 C57.567125,43.901 56.879625,44.071 56.469625,43.661 L54.027125,41.2185 Z" id="Fill-14" fill="#000000"></path>
                    <path d="M51.129125,44.06825 L49.261625,44.06825 C48.550375,44.06825 47.967875,43.48575 47.967875,42.7745 C47.967875,42.06325 48.550375,41.48075 49.261625,41.48075 L51.129125,41.48075 C51.840375,41.48075 52.422875,42.06325 52.422875,42.7745 C52.422875,43.48575 51.840375,44.06825 51.129125,44.06825" id="Fill-16" fill="#000000"></path>
                    <path d="M31.34525,79.818375 L35.65775,115.768375 L35.6965,115.723375 C36.0565,119.127125 38.93775,121.759625 42.43775,121.759625 C46.1815,121.759625 49.219,118.703375 49.219,114.960875 L49.219,74.068375 L30.90025,61.255875 C30.90025,61.255875 30.5415,68.509625 31.0065,77.783375 L31.34525,79.818375 Z" id="Fill-18" fill="#DBD5D6"></path>
                    <path d="M69.234625,79.818375 L64.922125,115.768375 L64.883375,115.723375 C64.523375,119.127125 61.194625,121.759625 57.695875,121.759625 C53.952125,121.759625 50.468375,118.703375 50.468375,114.960875 L50.468375,74.068375 L69.233375,61.255875 C69.233375,61.255875 69.815875,68.509625 69.349625,77.783375 L69.234625,79.818375 Z" id="Fill-20" fill="#DBD5D6"></path>
                    <path d="M49.84375,81.646375 L49.84375,81.646375 C49.49875,81.646375 49.21875,81.926375 49.21875,82.271375 L47.96875,117.986375 L51.71875,117.986375 L50.46875,82.271375 C50.46875,81.926375 50.18875,81.646375 49.84375,81.646375" id="Fill-22" fill="#CCC8C9"></path>
                </g>
                <g id="Group-34" transform="translate(133.000000, 170.000000)">
                    <g id="Group-3">
                        <mask id="mask-16" fill="white">
                            <use xlink:href="#path-15"></use>
                        </mask>
                        <g id="Clip-2"></g>
                        <path d="M50,150.00025 L50,150.00025 C22.385,150.00025 0,127.614 0,100.00025 L0,50.00025 C0,22.38525 22.385,0.00025 50,0.00025 C77.615,0.00025 100,22.38525 100,50.00025 L100,100.00025 C100,127.614 77.615,150.00025 50,150.00025" id="Fill-1" fill="#DCEBF7" mask="url(#mask-16)"></path>
                    </g>
                    <path d="M77.879625,121.613375 C77.879625,124.388375 65.477125,126.638375 50.179625,126.638375 C34.880875,126.638375 22.479625,124.388375 22.479625,121.613375 C22.479625,118.838375 34.880875,116.588375 50.179625,116.588375 C65.477125,116.588375 77.879625,118.838375 77.879625,121.613375" id="Fill-4" fill="#CADFED"></path>
                    <path d="M39.52275,67.91275 C39.52275,69.37275 38.339,70.55525 36.88025,70.55525 C35.42025,70.55525 34.2365,69.37275 34.2365,67.91275 C34.2365,69.37275 33.05275,70.55525 31.59275,70.55525 C30.13275,70.55525 28.95025,69.37275 28.95025,67.91275 C28.95025,69.37275 27.76775,70.55525 26.30775,70.55525 C24.84775,70.55525 23.664,69.37275 23.664,67.91275 L23.664,67.2715 L23.664,66.08775 C23.664,61.7265 27.23275,58.15775 31.59275,58.15775 C35.95525,58.15775 39.52275,61.7265 39.52275,66.08775 L39.52275,67.2715 L39.52275,67.91275 Z" id="Fill-6" fill="#ABD8D8"></path>
                    <path d="M75.067125,67.91275 C75.067125,69.37275 73.884625,70.55525 72.424625,70.55525 C70.964625,70.55525 69.780875,69.37275 69.780875,67.91275 C69.780875,69.37275 68.598375,70.55525 67.138375,70.55525 C65.678375,70.55525 64.495875,69.37275 64.495875,67.91275 C64.495875,69.37275 63.312125,70.55525 61.853375,70.55525 C60.393375,70.55525 59.208375,69.37275 59.208375,67.91275 L59.208375,67.2715 L59.208375,66.08775 C59.208375,61.7265 62.777125,58.15775 67.138375,58.15775 C71.499625,58.15775 75.067125,61.7265 75.067125,66.08775 L75.067125,67.2715 L75.067125,67.91275 Z" id="Fill-8" fill="#ABD8D8"></path>
                    <path d="M40.8435,100.4 C37.80225,95.135 40.2935,88.40125 46.0285,86.38125 L72.83725,76.94 C74.84725,76.16 77.12475,76.9625 78.2035,78.83 C79.281,80.6975 78.83725,83.07125 77.15725,84.4225 L55.576,102.91875 C50.95975,106.87625 43.8835,105.66625 40.8435,100.4" id="Fill-10" fill="#74AFAF"></path>
                    <path d="M48.352,113.618375 C48.352,120.154625 47.93575,121.759625 43.01325,121.759625 C38.36575,121.759625 37.70075,119.149625 36.647,113.484625 L31.9245,93.009625 C30.98075,86.268375 31.627,81.579625 39.62325,80.395875 C47.62325,79.212125 48.352,83.560875 48.352,90.097125 L48.352,113.618375 Z" id="Fill-12" fill="#84BEC1"></path>
                    <path d="M50.379625,113.618375 C50.379625,120.154625 50.795875,121.759625 55.718375,121.759625 C60.365875,121.759625 61.030875,119.149625 62.084625,113.484625 L66.807125,93.009625 C67.750875,86.268375 67.105875,81.579625 59.108375,80.395875 C51.108375,79.212125 50.379625,83.560875 50.379625,90.097125 L50.379625,113.618375 Z" id="Fill-14" fill="#84BEC1"></path>
                    <path d="M55.802,52.81825 L42.9295,52.81825 C42.9295,52.81825 31.1895,80.347 31.1895,87.5895 C31.1895,97.62825 39.327,105.62575 49.367,105.62575 C59.4045,105.62575 67.54325,97.6995 67.54325,87.66075 C67.54325,80.417 55.802,52.81825 55.802,52.81825" id="Fill-16" fill="#84BEC1"></path>
                    <path d="M56.651625,66.136125 L43.212875,66.136125 C38.577875,66.136125 34.941625,62.019875 35.355375,57.241125 L36.064125,49.047375 C36.411625,43.022375 41.232875,38.319875 47.064125,38.319875 L52.800375,38.319875 C58.631625,38.319875 63.452875,43.022375 63.800375,49.047375 L64.509125,57.241125 C64.922875,62.019875 61.286625,66.136125 56.651625,66.136125" id="Fill-18" fill="#74AFAF"></path>
                    <path d="M54.422625,25.982875 L54.422625,25.982875 C53.360125,25.982875 52.500125,26.842875 52.500125,27.905375 L52.500125,34.811625 C52.500125,35.874125 53.360125,36.734125 54.422625,36.734125 L55.938875,36.734125 C57.166375,36.734125 58.080125,35.599125 57.816375,34.399125 L56.300125,27.492875 C56.106375,26.610375 55.325125,25.982875 54.422625,25.982875" id="Fill-20" fill="#84BEC1"></path>
                    <path d="M45.441875,25.982875 L45.441875,25.982875 C46.504375,25.982875 47.364375,26.842875 47.364375,27.905375 L47.364375,34.811625 C47.364375,35.874125 46.504375,36.734125 45.441875,36.734125 L43.925625,36.734125 C42.698125,36.734125 41.784375,35.599125 42.048125,34.399125 L43.564375,27.492875 C43.758125,26.610375 44.539375,25.982875 45.441875,25.982875" id="Fill-22" fill="#84BEC1"></path>
                    <path d="M58.809875,61.0995 L41.054875,61.0995 C35.322375,61.0995 32.073625,57.59075 32.586125,51.88075 L33.398625,44.46075 C33.811125,37.52075 39.559875,32.10325 46.512375,32.10325 L53.352375,32.10325 C60.304875,32.10325 66.053625,37.52075 66.466125,44.46075 L67.277375,51.88075 C67.791125,57.59075 64.542375,61.0995 58.809875,61.0995" id="Fill-24" fill="#84BEC1"></path>
                    <path d="M45.963125,51.321625 C46.136875,51.421625 46.198125,51.657875 46.084375,51.821625 C44.889375,53.529125 42.566875,54.071625 40.724375,53.015375 C38.883125,51.960375 38.176875,49.686625 39.040625,47.794125 C39.124375,47.607875 39.365625,47.541625 39.541875,47.642875 L45.963125,51.321625 Z" id="Fill-26" fill="#E4D9ED"></path>
                    <path d="M53.765875,51.321625 C53.592125,51.421625 53.530875,51.657875 53.644625,51.821625 C54.839625,53.529125 57.162125,54.071625 59.004625,53.015375 C60.845875,51.960375 61.552125,49.686625 60.688375,47.794125 C60.604625,47.607875 60.363375,47.541625 60.187125,47.642875 L53.765875,51.321625 Z" id="Fill-28" fill="#E4D9ED"></path>
                    <path d="M43.533875,63.80875 L43.191375,63.80875 C42.533875,63.80875 42.001375,63.27625 42.001375,62.62 L42.001375,59.54875 C42.001375,59.08125 42.380125,58.7025 42.847625,58.7025 C43.208875,58.7025 43.531375,58.9325 43.648875,59.275 L44.657625,62.23625 C44.921375,63.0075 44.347625,63.80875 43.533875,63.80875" id="Fill-30" fill="#ABD8D8"></path>
                    <path d="M55.788625,63.80875 L56.131125,63.80875 C56.788625,63.80875 57.321125,63.27625 57.321125,62.62 L57.321125,59.54875 C57.321125,59.08125 56.942375,58.7025 56.474875,58.7025 C56.113625,58.7025 55.791125,58.9325 55.674875,59.275 L54.664875,62.23625 C54.401125,63.0075 54.974875,63.80875 55.788625,63.80875" id="Fill-32" fill="#ABD8D8"></path>
                </g>
            </g>
        </g>
    </g>
</svg>